<?xml version="1.0" encoding="UTF-8" standalone="no"?>
<svg width="1024px" height="513px" viewBox="0 0 1024 513" version="1.1" xmlns="http://www.w3.org/2000/svg" xmlns:xlink="http://www.w3.org/1999/xlink">
    <!-- Generator: Sketch 39.1 (31720) - http://www.bohemiancoding.com/sketch -->
    <title>Desktop</title>
    <desc>Created with Sketch.</desc>
    <defs>
        <linearGradient x1="52.7031541%" y1="100%" x2="52.1257758%" y2="0%" id="linearGradient-1">
            <stop stop-color="#FCC073" offset="0%"></stop>
            <stop stop-color="#FB9E7B" offset="41.5078922%"></stop>
            <stop stop-color="#FB8182" offset="67.0539053%"></stop>
            <stop stop-color="#FB7785" offset="76.7916932%"></stop>
            <stop stop-color="#FB5F8E" offset="100%"></stop>
        </linearGradient>
    </defs>
    <g id="Page-1" stroke="none" stroke-width="1" fill="none" fill-rule="evenodd">
        <g id="Desktop">
            <rect id="Rectangle" fill="url(#linearGradient-1)" x="0" y="2.88719012" width="1024" height="510.514998"></rect>
            <g id="diamond" opacity="0.800000012" transform="translate(820.000000, 123.500000) rotate(22.500000) translate(-820.000000, -123.500000) translate(801.000000, 106.000000)" fill="#FFFFFF">
                <g id="Capa_1">
                    <path d="M38.0095803,11.608753 C38.0140147,11.5826621 38.0165486,11.5572075 38.0178155,11.5304803 C38.0190825,11.4992985 38.018449,11.4693894 38.0159151,11.4382075 C38.0133812,11.4114803 38.0095803,11.3860257 38.0032455,11.3599348 C37.9962772,11.3293894 37.9867749,11.3001166 37.9753722,11.2708439 C37.9696709,11.2555712 37.9684039,11.2396621 37.9614356,11.2250257 C37.9563678,11.2142075 37.947499,11.2059348 37.9417977,11.1951166 C37.9360964,11.1842985 37.9335624,11.1728439 37.9272276,11.1620257 L31.5924066,0.980207545 C31.5632665,0.933752999 31.5290584,0.891752999 31.490416,0.854843908 C31.4897825,0.854207545 31.4891491,0.854207545 31.4885156,0.853571181 C31.4340361,0.802025727 31.3694209,0.765116636 31.3003714,0.735843908 C31.2915026,0.732025727 31.2858013,0.724389363 31.2762991,0.720571181 C31.2693308,0.718025727 31.261729,0.719298454 31.2547607,0.717389363 C31.190779,0.695752999 31.1248969,0.681116636 31.0558473,0.681116636 L6.98352763,0.681116636 C6.91511156,0.681116636 6.84986291,0.695752999 6.78714818,0.716752999 C6.78017988,0.71866209 6.77321157,0.717389363 6.76687675,0.719934818 C6.75737452,0.723116636 6.75167318,0.730752999 6.74280443,0.734571181 C6.6769223,0.761934818 6.61484105,0.797571181 6.56099507,0.845934818 C6.55782766,0.849116636 6.55339329,0.851025727 6.55022588,0.853571181 C6.51094999,0.890480272 6.47610847,0.933116636 6.44696829,0.979571181 L0.112147328,11.1613894 C0.105812507,11.1715712 0.103278579,11.1836621 0.09757724,11.1944803 C0.0918759011,11.2052985 0.0830071518,11.2135712 0.077939295,11.2243894 C0.0709709919,11.2390257 0.0697040277,11.2549348 0.0633692068,11.2702075 C0.051966529,11.2994803 0.0424642976,11.328753 0.0354959945,11.3592985 C0.0297946556,11.3853894 0.025360281,11.4114803 0.0228263526,11.4382075 C0.0183919779,11.4693894 0.0177584958,11.4999348 0.01902546,11.5304803 C0.0202924242,11.5572075 0.0228263526,11.5826621 0.0272607273,11.608753 C0.032328584,11.6392985 0.0405638513,11.6692075 0.0506995648,11.6991166 C0.0589348321,11.7239348 0.0678035814,11.7481166 0.0792062592,11.7722985 C0.084907598,11.783753 0.0868080443,11.7964803 0.0931428653,11.8079348 C0.103278579,11.8263894 0.118482149,11.8403894 0.129884827,11.8575712 C0.138753576,11.8709348 0.143821433,11.8855712 0.154590629,11.8982985 L18.5186031,34.7984803 C18.5198701,34.8003894 18.5211371,34.8016621 18.522404,34.8029348 L18.5255714,34.8073894 C18.5274719,34.8099348 18.5306393,34.8105712 18.5325397,34.8131166 C18.5844853,34.8761166 18.6491004,34.9238439 18.719417,34.9620257 C18.7384214,34.9722075 18.7561589,34.9811166 18.7757969,34.9893894 C18.8524482,35.0218439 18.9335339,35.044753 19.0184205,35.044753 C19.0906375,35.044753 19.1634879,35.0320257 19.2357049,35.0059348 C19.2464741,35.0021166 19.2534424,34.9932075 19.2642116,34.988753 C19.2965191,34.9753894 19.3218584,34.953753 19.3509986,34.9352985 C19.3991432,34.904753 19.4441205,34.8729348 19.4814959,34.8315712 C19.4903647,34.8220257 19.5036678,34.8175712 19.5119031,34.8073894 L37.8828839,11.8982985 C37.8930196,11.8855712 37.8980874,11.8702985 37.9075897,11.8575712 C37.9196258,11.8403894 37.9341959,11.8263894 37.9443316,11.8079348 C37.9506664,11.7964803 37.9525669,11.783753 37.9582682,11.7722985 C37.9696709,11.7481166 37.9785397,11.7245712 37.9867749,11.6991166 C37.9956437,11.6692075 38.0045124,11.6399348 38.0095803,11.608753 L38.0095803,11.608753 Z M20.5716154,1.77011293 L30.0716154,1.77011293 L27.0850056,10.0428402 L20.5716154,1.77011293 L20.5716154,1.77011293 Z M26.0112774,10.8226874 L12.077944,10.8226874 L19.0442911,2.54996011 L26.0112774,10.8226874 L26.0112774,10.8226874 Z M10.7243996,10.5462596 L7.77718257,2.27353233 L17.2771826,2.27353233 L10.7243996,10.5462596 L10.7243996,10.5462596 Z M26.5048536,12.2512569 L19.1509478,32.6148932 L11.938187,12.2512569 L26.5048536,12.2512569 L26.5048536,12.2512569 Z M31.4705439,2.64654734 L36.6290031,10.9192746 L28.3956698,10.9192746 L31.4705439,2.64654734 L31.4705439,2.64654734 Z M6.89038469,2.73858563 L9.92818502,11.0113129 L1.69485168,11.0113129 L6.89038469,2.73858563 L6.89038469,2.73858563 Z M10.1628345,12.3140597 L17.057411,31.4049688 L1.85741098,12.3140597 L10.1628345,12.3140597 L10.1628345,12.3140597 Z M20.4932994,31.2255423 L27.8160465,12.1346332 L36.3266328,12.1346332 L20.4932994,31.2255423 L20.4932994,31.2255423 Z" id="Shape"></path>
                </g>
            </g>
            <g id="shrimp" opacity="0.800000012" transform="translate(186.000000, 137.000000) rotate(-22.500000) translate(-186.000000, -137.000000) translate(168.000000, 119.000000)" fill="#FFFFFF">
                <g id="Capa_1">
                    <g id="Group">
                        <path d="M16.2092651,3.47055845 C16.2501895,2.81331765 15.7497959,2.24302933 15.0931455,2.19865359 C14.7756715,2.17106866 14.4755593,2.27721065 14.2355936,2.47989988 C13.9888072,2.68978517 13.8350307,2.99501835 13.8139485,3.31944104 C13.7730241,3.97668184 14.2734177,4.54697016 14.930068,4.59134591 C14.957971,4.5937446 14.985874,4.59434427 15.0131569,4.59434427 C15.2977674,4.59434427 15.5699766,4.49479867 15.78824,4.30890027 C16.0362665,4.09901498 16.189423,3.7937818 16.2092651,3.47055845 L16.2092651,3.47055845 Z M14.9379133,3.67060114 L14.9761985,3.65620114 L15.7379133,3.70260114 L14.9379133,3.67060114 L14.9379133,3.67060114 Z" id="Shape"></path>
                        <path d="M35.8698204,18.3806029 L33.6852569,14.1183257 L34.588255,13.5287759 L34.7124088,13.4250151 C35.2592281,12.8408554 35.5251749,12.0431102 35.4430842,11.2386273 C35.3643856,10.4698542 34.9715713,9.78058619 34.3643712,9.3439824 L30.4545453,6.25945745 C30.4796474,6.15367536 30.4979652,6.06945395 30.5088202,6.01757356 C30.8005476,5.20433162 30.7306687,4.31023712 30.315466,3.55493951 C29.9179025,2.83333046 29.2421804,2.32530691 28.4613007,2.16023294 L20.816007,0.963615139 C20.520209,0.90162818 20.2155913,0.895564239 19.9082598,0.942054457 C19.8953695,0.932621659 19.8845146,0.921841319 19.8716243,0.913082292 C17.5235578,-0.723508163 13.6747911,0.388888231 13.5119665,0.438073535 L4.98809835,4.52584393 C3.25198098,3.66274291 2.13595399,2.37044958 2.21804473,1.0303185 C2.24043311,0.659744288 1.95616849,0.339702927 1.58167189,0.317468475 C1.22142245,0.312078304 0.886275134,0.578217963 0.863208314,0.94879217 C0.760086063,2.63861056 1.81166165,4.20108617 3.57152427,5.30472354 C3.39852313,5.49203196 3.28183216,5.72987322 3.25944378,5.99870796 C3.22280824,6.4225101 3.40598592,6.82070893 3.74927447,7.0632666 C5.57291007,8.35286484 10.1917014,11.2339109 15.0330197,11.2339109 C15.2874332,11.2339109 15.5425251,11.2258256 15.7976169,11.2096551 C15.9482297,11.2002223 16.0907012,11.1806829 16.2358865,11.1645124 L16.2888045,11.2204354 C16.3417225,11.2763585 16.3946405,11.3309339 16.4523075,11.3828143 L18.6945381,14.1055241 C18.2535548,14.4134376 17.7189473,14.5980509 17.1395631,14.5980509 C16.764388,14.5980509 16.4611272,14.8992267 16.4611272,15.2718222 C16.4611272,15.6444177 16.764388,15.9455935 17.1395631,15.9455935 C18.1327932,15.9455935 19.0425757,15.5898422 19.7501843,15.0009661 C20.3404235,15.3445895 21.0107181,15.5332454 21.6884755,15.5332454 C21.7454641,15.5332454 21.8031312,15.5265077 21.8601198,15.5238126 C21.1267306,16.5910664 19.8926558,17.293136 18.4964348,17.293136 C18.1212598,17.293136 17.8179989,17.5943118 17.8179989,17.9669073 C17.8179989,18.3395028 18.1212598,18.6406786 18.4964348,18.6406786 C20.4109808,18.6406786 22.0935017,17.6488873 23.0595944,16.1578314 L23.4456244,17.4130673 L23.4917581,17.5269347 C23.6186256,17.7694923 23.7868777,17.973645 23.9714122,18.1589321 L23.7013947,19.2800876 L23.6844338,19.3993451 C23.6416924,20.165423 23.9612357,20.8978124 24.5406199,21.3593458 C24.7102289,21.4947738 24.8967987,21.5958395 25.0908314,21.6746707 L24.6315303,22.2035812 L24.5616514,22.301278 C24.2149707,22.8820689 24.1620527,23.5895287 24.4198583,24.192554 C24.4313917,24.2188311 24.4490311,24.239718 24.4612429,24.2653213 C23.2848351,24.5988381 22.0962155,24.8279203 21.2420647,24.8757581 C20.3316038,24.9249434 19.5127317,25.5697425 19.2515339,26.4429501 C19.0513953,27.1093099 19.2522124,27.760173 19.7752864,28.1415275 C20.3594197,28.5666772 21.3200849,28.4885197 22.8329968,28.307949 C23.3994908,28.2405719 23.9836241,28.1657833 24.3174145,28.1934079 C24.4144308,28.2001456 24.4883803,28.2297916 24.5114472,28.2715654 C24.534514,28.3133392 24.534514,28.411036 24.4592076,28.5478116 C24.3567638,28.73512 24.2176844,28.9675711 24.0596089,29.233037 C23.1043712,30.8359389 21.6599812,33.2588204 22.1722003,34.9621143 C22.355378,35.569856 22.8879501,35.9754663 23.5636723,36.0192614 C23.6077706,36.0219565 23.6518689,36.023304 23.6959672,36.023304 C24.5555455,36.023304 25.3852725,35.4869821 25.7475573,34.6824992 C26.4544875,33.1112645 28.485046,30.7281355 30.6343308,28.2055358 L31.0787063,27.683363 C31.1275537,27.6260925 31.2652762,27.4798841 31.4484538,27.285838 C31.6004235,27.1241329 31.7836012,26.9280654 31.9722063,26.7252603 C31.9755985,26.7252603 31.9789907,26.7266078 31.9817044,26.7266078 C32.4064053,26.7266078 32.8304277,26.5918536 33.1906771,26.3344729 C33.7049315,25.9679414 34.032616,25.4006259 34.09164,24.7780613 L34.0957106,24.7335924 L33.9756274,21.7070117 L34.1065655,21.7056642 L34.2836373,21.6807347 C34.9423985,21.4974689 35.4960022,21.0298716 35.8040121,20.3985479 C36.1154141,19.7564439 36.1398378,19.0220332 35.8698204,18.3806029 L35.8698204,18.3806029 Z M33.4674091,10.36171 L33.4970214,10.3819812 C33.8058353,10.5866548 34.008186,10.9208025 34.0490791,11.2987621 C34.0913824,11.681299 33.9687029,12.0579508 33.711358,12.3443631 L26.3928912,16.8105637 L26.2638663,16.9112657 C26.1686839,17.0060826 26.0601055,17.0773587 25.9472967,17.1375183 C25.9205047,17.1519044 25.8930075,17.1649825 25.8655104,17.1774068 C25.756932,17.2251422 25.6448283,17.2617611 25.5291994,17.2781089 C25.5221488,17.2787628 25.5150983,17.2820323 25.5073427,17.2833401 C25.3783177,17.2990339 25.2471775,17.2924949 25.1195626,17.2669924 C25.1047565,17.2643768 25.0899503,17.2597994 25.0751442,17.2565298 C24.9482344,17.22645 24.8234397,17.1806764 24.7078108,17.1087463 L24.6669176,17.0832439 C24.5266117,16.9877731 24.4039322,16.8641843 24.310865,16.7137851 L23.6572794,14.7278625 C23.7390657,14.6938592 23.8145066,14.6539708 23.8941777,14.6180058 C27.384198,13.0577781 29.0995958,9.71695542 29.8420183,7.69179827 L33.4674091,10.36171 L33.4674091,10.36171 Z M4.67764824,6.16382976 L4.88886082,6.05661319 C5.98743194,6.53560671 7.25337906,6.8551678 8.62559667,6.95611847 C8.64087306,6.95681468 8.65681363,6.95751089 8.67209001,6.95751089 C9.01813327,6.95751089 9.30971291,6.67693765 9.33428796,6.30933797 C9.3595272,5.92572542 9.08322394,5.59363252 8.71725497,5.56648028 C7.97668254,5.51217578 7.26666287,5.37919938 6.60180817,5.18774121 L13.6668027,1.6029481 C14.6252296,1.31610895 17.2521031,0.849647235 18.7000384,1.91415465 C18.8176002,2.00048488 18.9119152,2.10770145 19.0108796,2.21074075 C19.0826122,2.2859316 19.1536806,2.36112244 19.2154503,2.44466783 C19.27722,2.52890942 19.3296911,2.62289797 19.3821621,2.71619032 C19.4293196,2.80043191 19.4797981,2.88188866 19.5196495,2.97378858 C19.5721206,3.09701802 19.611972,3.2348679 19.6504951,3.37202157 C19.6730776,3.45208589 19.7029661,3.5251881 19.7208993,3.61012591 C19.7700494,3.84266056 19.8045873,4.09051186 19.8198637,4.36064193 L19.8284981,4.43861762 C19.8284981,4.44001004 19.8304907,4.45045321 19.8324833,4.4678585 C19.8338117,4.47621304 19.83514,4.49013727 19.8364684,4.50197286 C19.8377968,4.51380846 19.8391252,4.52425163 19.8411178,4.53956829 C19.8517448,4.63355684 19.866357,4.7881158 19.8736631,4.9879285 L19.8736631,4.98862472 C19.8756557,5.0540686 19.8776482,5.12438596 19.8776482,5.19888059 L19.8776482,5.20305786 C19.8776482,5.27685628 19.876984,5.35274334 19.8749915,5.43141524 C19.8749915,5.43768114 19.8749915,5.44325084 19.8743273,5.44951674 C19.8716705,5.52679622 19.8676854,5.60755676 19.8623719,5.69110214 C19.8617077,5.69945668 19.8617077,5.707115 19.8610435,5.71546954 C19.8550658,5.7976225 19.8477597,5.88186409 19.838461,5.96819432 C19.8371326,5.97933371 19.8364684,5.98977688 19.83514,6.00091626 C19.8251772,6.08585407 19.8132218,6.17288051 19.7999379,6.26129937 C19.7979454,6.27452739 19.7959528,6.28775541 19.7939602,6.30167964 C19.7800122,6.38870608 19.7634075,6.47642873 19.7441459,6.56554381 C19.740825,6.58225288 19.737504,6.59896196 19.7335189,6.61567103 C19.7142574,6.70269747 19.6923391,6.78972391 19.6684282,6.87814278 C19.6631147,6.8976367 19.6578012,6.91713062 19.6518235,6.93662454 C19.6272484,7.02225856 19.6000166,7.10858879 19.5707922,7.19422281 C19.5628219,7.21719779 19.5548516,7.23947656 19.5468814,7.26245154 C19.5169928,7.34530071 19.4844474,7.42814988 19.4492454,7.51099905 C19.4379541,7.53745509 19.4259987,7.56321491 19.4147074,7.58967095 C19.3795053,7.66834285 19.3416465,7.74701475 19.3004667,7.82429423 C19.2845261,7.85423133 19.2679213,7.88347221 19.2513166,7.91340931 C19.210801,7.98651152 19.1676286,8.05961372 19.1217994,8.13132351 C19.0713209,8.21069162 19.0201783,8.28936353 18.9623937,8.36594679 C18.2171719,9.35665578 17.0143229,9.91501742 15.3877203,10.0257151 C11.0060555,10.3397064 6.58453921,7.5506831 4.67764824,6.16382976 L4.67764824,6.16382976 Z M20.6656055,14.2153216 C21.0176321,13.6046644 21.2230925,12.8961105 21.2230925,12.1375812 C21.2230925,11.7590012 20.9239368,11.452988 20.5538404,11.452988 C20.183744,11.452988 19.8845883,11.7590012 19.8845883,12.1375812 C19.8845883,12.558606 19.7835312,12.9522471 19.6175567,13.3089202 L18.0327677,11.3277074 C19.2206902,10.8751913 20.1034337,10.0885937 20.6629285,8.98023731 C20.6656055,8.97612975 20.6676133,8.97202219 20.6702903,8.96723004 C20.7345385,8.86933321 20.7927634,8.7700672 20.8496498,8.67080118 C20.8630349,8.64752501 20.8777584,8.62424884 20.8904742,8.60028808 C20.9453529,8.49965288 20.9955468,8.39833308 21.0430637,8.2963287 C21.0537717,8.27305253 21.0658183,8.25046095 21.0758571,8.22718478 C21.1227047,8.1244958 21.1648676,8.02180682 21.2043535,7.91843324 C21.2130537,7.89652626 21.221754,7.87393469 21.2304543,7.8520277 C21.2692709,7.74796953 21.304072,7.64528055 21.3361961,7.54190698 C21.3428887,7.52068459 21.3495812,7.4994622 21.3562737,7.47823981 C21.3877285,7.37418164 21.4158371,7.27149266 21.4412687,7.16811909 C21.4459535,7.14895048 21.4513075,7.12909727 21.4559923,7.10992866 C21.4807546,7.0058705 21.5028399,6.90386611 21.5222482,6.80254631 C21.5255945,6.78543148 21.5289407,6.76831665 21.532287,6.75120182 C21.5510261,6.64851284 21.5677574,6.54787764 21.5818117,6.44861162 C21.5838194,6.43355057 21.5858272,6.41917411 21.5878349,6.40479766 C21.60122,6.30484705 21.6125973,6.20626563 21.6219668,6.11042258 C21.6233053,6.0980999 21.6239745,6.08577722 21.625313,6.07345454 C21.6340133,5.97624231 21.6413751,5.88176845 21.6460599,5.79003295 C21.6467291,5.78044865 21.6467291,5.77154894 21.6473984,5.76196463 C21.6520831,5.66954455 21.6554294,5.58054743 21.6567679,5.49428869 L21.6567679,5.46964333 C21.6581064,5.38338459 21.6581064,5.30054881 21.6567679,5.22182059 L21.6567679,5.21223629 C21.6554294,5.13076969 21.6534216,5.05409525 21.6494061,4.98221297 L21.6494061,4.97536704 C21.6353518,4.68236114 21.6085817,4.47082184 21.595866,4.38319391 C21.5951967,4.36676367 21.5918504,4.35238721 21.5911812,4.33595698 C21.5798039,4.16823164 21.5637419,4.00392927 21.5409873,3.84578824 C21.5249252,3.73693792 21.5015014,3.63356434 21.4800853,3.52882158 C21.4673695,3.46857738 21.4586693,3.40559481 21.444615,3.34671979 C21.4118216,3.21048574 21.3716665,3.08041303 21.3288344,2.9523941 C21.3214726,2.92980252 21.3161186,2.90584176 21.3080875,2.88393478 C21.2592321,2.74290858 21.2023457,2.60804372 21.1407745,2.47660182 C21.1374283,2.46975589 21.1354205,2.46290996 21.1327435,2.45606402 L28.1137123,3.58221985 C28.5012093,3.67121697 28.8257965,3.9299932 29.0305877,4.31268081 C29.2628182,4.7467129 29.2962808,5.26358078 29.124283,5.73047335 L29.0928281,5.84343123 C29.0888126,5.86739199 28.9295306,6.67178901 28.5232946,7.7821992 C28.5012093,7.84312799 28.479124,7.90337219 28.4550309,7.96703936 C28.4336148,8.0238606 28.4108602,8.08136643 28.3881057,8.13955685 C28.3419273,8.25662229 28.2937411,8.3764261 28.2415395,8.49896829 C28.2348469,8.51402934 28.2288237,8.52909039 28.2221311,8.54483603 C27.5207549,10.1885443 26.3013776,12.2683385 24.3203913,13.5088214 C24.3130295,13.5136135 24.3049985,13.5184057 24.2969675,13.5231979 C24.1657941,13.6046644 24.0259204,13.6772313 23.8880544,13.7511674 C23.8914007,13.6697008 23.900101,13.5896034 23.900101,13.5074522 C23.900101,13.1288722 23.6009453,12.822859 23.2308489,12.822859 C22.8607524,12.822859 22.5615968,13.1288722 22.5615968,13.5074522 C22.5615968,13.7860816 22.5334882,14.0585497 22.4819558,14.3221181 C22.3882605,14.3481327 22.2959037,14.3768856 22.1995314,14.3994772 C21.6842072,14.519281 21.1441208,14.4446603 20.6656055,14.2153216 L20.6656055,14.2153216 Z M29.8760154,26.9872307 L29.4443434,27.5211209 C27.2945509,30.1802252 25.2633858,32.693096 24.5002161,34.4803176 C24.3413872,34.8521094 23.9584842,35.067321 23.667188,35.035591 C23.5182447,35.0252443 23.5024277,34.9686823 23.4925421,34.9348831 C23.1603853,33.7691538 24.4857172,31.425969 25.1974817,30.1671194 C25.3602649,29.8801707 25.5026178,29.6277109 25.6087234,29.4249154 C25.8914521,28.8827479 25.9092462,28.2964343 25.6581515,27.8170368 C25.4143063,27.3521247 24.9569317,27.0631066 24.403337,27.0237891 C24.3315015,27.0189606 24.2557118,27.0162015 24.1766269,27.0162015 C23.7620899,27.0162015 23.251333,27.0810409 22.7148734,27.1479496 C22.0940566,27.225205 20.9380983,27.3721283 20.6810722,27.234862 C20.662619,27.2203766 20.6059415,27.1769204 20.6560286,27.0010263 C20.7377497,26.7120082 21.0382725,26.4009172 21.398109,26.3802238 C22.5422046,26.3140048 24.1522423,25.9566985 25.648925,25.4386732 C25.6686962,25.4448812 25.6897855,25.4510893 25.7108748,25.4552279 L30.2358519,26.5761215 C30.0585698,26.7761578 29.9254435,26.9258402 29.8760154,26.9872307 L29.8760154,26.9872307 Z M32.7269904,25.2407738 C32.6954489,25.4802733 32.5727116,25.6976652 32.3868914,25.8413649 C32.2881529,25.9172678 32.0845049,26.0337014 31.8376589,25.9776954 L31.8170884,25.9732738 L25.9935783,24.4935353 C25.9709508,24.4854291 25.9503803,24.4751122 25.8900401,24.4471092 L25.8118722,24.411737 C25.6836494,24.3247802 25.6150811,24.2009774 25.5828539,24.1206529 C25.4971435,23.9025241 25.5108572,23.6534446 25.6185095,23.4279466 L26.7190315,22.0557986 L32.6076814,21.9924234 L32.7269904,25.2407738 L32.7269904,25.2407738 Z M34.4380778,19.9355688 C34.3120224,20.1936878 34.1010313,20.3887855 33.8509429,20.4806357 L33.6143362,20.482647 L33.6143362,20.482647 L29.1936348,20.526896 L26.2471746,20.5557248 L26.2451523,20.5557248 L26.075955,20.5570657 L26.0537099,20.5832128 C25.7847469,20.6529385 25.5184801,20.6006442 25.3047927,20.4310232 C25.0776234,20.2493342 24.951568,19.9684203 24.9542644,19.6539844 L25.1180689,18.970807 C25.1551441,18.9788523 25.1922192,18.9815341 25.2292943,18.987568 C25.2569321,18.9922611 25.2811994,19.004329 25.3088372,19.0083516 C25.3452383,19.0130447 25.3809652,19.0123743 25.4173662,19.0157264 C25.4247812,19.0163969 25.4315222,19.0163969 25.4389372,19.0170673 C25.5076947,19.0231013 25.5764521,19.0311465 25.6438614,19.0311465 C25.669477,19.0311465 25.6944184,19.0244422 25.7200339,19.0237717 C25.8312593,19.0197491 25.9424846,19.0090221 26.0523618,18.9902498 C26.1258379,18.9781819 26.1966176,18.9594096 26.2680715,18.9406373 C26.3334585,18.9238763 26.3974973,18.9030927 26.4615362,18.8802978 C26.5363605,18.8541506 26.6105107,18.8273331 26.6826386,18.7931407 C26.7844267,18.74621 26.8835183,18.6919044 26.9799136,18.6308945 C27.0203592,18.6047473 27.0594566,18.5779298 27.0992281,18.5497713 C27.2165202,18.4666369 27.3297679,18.3761276 27.4342523,18.2715392 L32.4137767,15.0132056 L34.4812197,19.0499188 C34.591771,19.3301623 34.5762668,19.6519731 34.4380778,19.9355688 L34.4380778,19.9355688 Z" id="Shape"></path>
                    </g>
                </g>
            </g>
            <g id="painter-palette" opacity="0.800000012" transform="translate(744.000000, 301.000000)" stroke-width="1.6" stroke="#FFFFFF">
                <g id="Capa_1">
                    <g id="palette">
                        <path d="M18.5,0 C8.22222222,0 0,8.22222222 0,18.5 C0,28.7777778 8.22222222,37 18.5,37 C20.1444444,37 21.5833333,35.5611111 21.5833333,33.9166667 C21.5833333,33.0944444 21.3777778,32.4777778 20.7611111,31.8611111 C20.35,31.2444444 19.9388889,30.6277778 19.9388889,29.8055556 C19.9388889,28.1611111 21.3778584,26.7222222 23.0222222,26.7222222 L26.7222222,26.7222222 C32.4777778,26.7222222 37,22.2 37,16.4444444 C37,7.4 28.7777778,0 18.5,0 L18.5,0 Z M7.23913043,18.5 C5.52318841,18.5 4.02173913,16.9985507 4.02173913,15.2826087 C4.02173913,13.5666667 5.52318841,12.0652174 7.23913043,12.0652174 C8.95507246,12.0652174 10.4565217,13.5666667 10.4565217,15.2826087 C10.4565217,16.9985507 8.95507246,18.5 7.23913043,18.5 L7.23913043,18.5 Z M13.673913,10.4565217 C11.957971,10.4565217 10.4565217,8.95507246 10.4565217,7.23913043 C10.4565217,5.52318841 11.957971,4.02173913 13.673913,4.02173913 C15.3898551,4.02173913 16.8913043,5.52318841 16.8913043,7.23913043 C16.8913043,8.95507246 15.3898551,10.4565217 13.673913,10.4565217 L13.673913,10.4565217 Z M24.1304348,10.4565217 C22.4144928,10.4565217 20.9130435,8.95507246 20.9130435,7.23913043 C20.9130435,5.52318841 22.4144928,4.02173913 24.1304348,4.02173913 C25.8463768,4.02173913 27.3478261,5.52318841 27.3478261,7.23913043 C27.3478261,8.95507246 25.8463768,10.4565217 24.1304348,10.4565217 L24.1304348,10.4565217 Z M29.7608696,18.5 C28.0449275,18.5 26.5434783,16.9985507 26.5434783,15.2826087 C26.5434783,13.5666667 28.0449275,12.0652174 29.7608696,12.0652174 C31.4768116,12.0652174 32.9782609,13.5666667 32.9782609,15.2826087 C32.9782609,16.9985507 31.4768116,18.5 29.7608696,18.5 L29.7608696,18.5 Z" id="Shape"></path>
                    </g>
                </g>
            </g>
            <g id="pencil" opacity="0.800000012" transform="translate(884.743359, 437.719937) rotate(22.500000) translate(-884.743359, -437.719937) translate(871.243359, 418.719937)" fill="#FFFFFF">
                <g id="Capa_1">
                    <g id="Group">
                        <path d="M22.0432836,16.1702128 L19.7462687,16.1702128 L19.7462687,14.3510638 C19.7462687,14.0161787 19.4757045,13.7446809 19.141791,13.7446809 L17.7313433,13.7446809 L17.7313433,4.48723404 C17.7313433,4.46702128 17.7302955,4.44688936 17.7282806,4.4268383 C17.7266687,4.41034468 17.7239284,4.39425532 17.7210269,4.37816596 C17.7203821,4.37477021 17.7201403,4.37137447 17.7194955,4.36797872 C17.711194,4.32642128 17.6987015,4.28631915 17.6824209,4.24831915 L16.0728985,0.373208511 C15.9790836,0.147229787 15.7588925,-2.48412402e-15 15.5149254,-2.48412402e-15 C15.2709582,-2.48412402e-15 15.0507672,0.147229787 14.9569522,0.37312766 L13.3473493,4.2484 C13.3310687,4.2864 13.3186567,4.32634043 13.3103552,4.36789787 C13.3096299,4.37161702 13.3093075,4.37549787 13.3086627,4.37921702 C13.3058418,4.39490213 13.3031821,4.41066809 13.3015701,4.42675745 C13.2995552,4.44680851 13.2985075,4.46694043 13.2985075,4.48715319 L13.2985075,13.7446809 L12.0895522,13.7446809 L12.0895522,1.57659574 C12.0895522,0.707285106 11.3844896,-2.48412402e-15 10.5179104,-2.48412402e-15 L9.22835821,-2.48412402e-15 C8.3617791,-2.48412402e-15 7.65671642,0.707285106 7.65671642,1.57659574 L7.65671642,13.7446809 L6.44776119,13.7446809 L6.44776119,4.48723404 C6.44776119,4.46702128 6.44671343,4.44688936 6.44469851,4.4268383 C6.44308657,4.41074894 6.44042687,4.39498298 6.43760597,4.37929787 C6.4368806,4.37549787 6.43663881,4.37169787 6.43591343,4.36797872 C6.42761194,4.32642128 6.4152,4.28648085 6.3989194,4.24848085 L4.78931642,0.37312766 C4.6954209,0.147229787 4.47539104,-2.48412402e-15 4.23134328,-2.48412402e-15 C3.98729552,-2.48412402e-15 3.76726567,0.147229787 3.67337015,0.37312766 L2.06376716,4.2484 C2.04748657,4.2864 2.03507463,4.32634043 2.02677313,4.36789787 C2.02604776,4.37161702 2.02572537,4.37549787 2.0250806,4.37921702 C2.0222597,4.39490213 2.0196,4.41066809 2.01798806,4.42675745 C2.01597313,4.44688936 2.01492537,4.46702128 2.01492537,4.48723404 L2.01492537,13.7446809 L0.604477612,13.7446809 C0.270644776,13.7446809 -9.05733821e-15,14.0161787 -9.05733821e-15,14.3510638 L-9.05733821e-15,37.393617 C-9.05733821e-15,37.7285021 0.270644776,38 0.604477612,38 L19.141791,38 C19.4757045,38 19.7462687,37.7285021 19.7462687,37.393617 L19.7462687,33.1489362 L22.0432836,33.1489362 C24.776409,33.1489362 27,30.9183362 27,28.1765957 L27,21.1425532 C27,18.4008128 24.776409,16.1702128 22.0432836,16.1702128 L22.0432836,16.1702128 Z M15.4378946,2.57566815 L16.2320122,4.19268943 L14.6437769,4.19268943 L15.4378946,2.57566815 L15.4378946,2.57566815 Z M14.3016804,5.34531426 L16.6840333,5.34531426 L16.6840333,14.2389313 L14.3016804,14.2389313 L14.3016804,5.34531426 L14.3016804,5.34531426 Z M9.03574016,4.06556929 L11.4180931,4.06556929 L11.4180931,5.68259057 L9.03574016,5.68259057 L9.03574016,4.06556929 L9.03574016,4.06556929 Z M9.37077463,1.47974528 L10.8954805,1.47974528 C11.1279029,1.47974528 11.324304,1.66489422 11.324304,1.8840006 L11.324304,3.09676656 L8.9419511,3.09676656 L8.9419511,1.8840006 C8.9419511,1.66489422 9.13835228,1.47974528 9.37077463,1.47974528 L9.37077463,1.47974528 Z M8.87073033,5.88540861 L11.2530833,5.88540861 L11.2530833,13.1620044 L8.87073033,13.1620044 L8.87073033,5.88540861 L8.87073033,5.88540861 Z M4.07682302,2.11611671 L4.87094067,3.73313799 L3.28270538,3.73313799 L4.07682302,2.11611671 L4.07682302,2.11611671 Z M2.94060886,4.88576281 L5.3229618,4.88576281 L5.3229618,13.7793798 L2.94060886,13.7793798 L2.94060886,4.88576281 L2.94060886,4.88576281 Z M25.9398474,28.4138103 C25.9398474,30.4868315 24.2562425,32.1733847 22.1866652,32.1733847 L19.2809757,32.1733847 C18.9465792,32.1733847 18.6756237,32.4448826 18.6756237,32.7797677 L18.6756237,37.0244486 L1.32220035,37.0244486 L1.32220035,15.1946613 L18.6756237,15.1946613 L18.6756237,17.0138103 C18.6756237,17.3486954 18.9465792,17.6201932 19.2809757,17.6201932 L22.1866652,17.6201932 C24.2562425,17.6201932 25.9398474,19.3067464 25.9398474,21.3797677 L25.9398474,28.4138103 L25.9398474,28.4138103 Z" id="Shape"></path>
                        <path d="M4.1879097,16.9464045 C3.74934499,16.9464045 3.39379205,17.2480688 3.39379205,17.6201633 L3.39379205,20.3151988 C3.39379205,20.6872934 3.74934499,20.9889577 4.1879097,20.9889577 C4.6264744,20.9889577 4.98202735,20.6872934 4.98202735,20.3151988 L4.98202735,17.6201633 C4.98202735,17.2480688 4.6264744,16.9464045 4.1879097,16.9464045 L4.1879097,16.9464045 Z" id="Shape"></path>
                        <path d="M3.96399327,22.2915884 C3.52542856,22.2915884 3.16987562,22.5630863 3.16987562,22.8979714 L3.16987562,34.6213756 C3.16987562,34.9562607 3.52542856,35.2277586 3.96399327,35.2277586 C4.40255798,35.2277586 4.75811092,34.9562607 4.75811092,34.6213756 L4.75811092,22.8979714 C4.75811092,22.5630863 4.40255798,22.2915884 3.96399327,22.2915884 L3.96399327,22.2915884 Z" id="Shape"></path>
                        <path d="M22.1943162,19.2713294 L19.7569859,19.2713294 L19.7569859,19.0692018 C19.7569859,18.7343167 19.469894,18.4628188 19.1155832,18.4628188 C18.7612723,18.4628188 18.4741804,18.7343167 18.4741804,19.0692018 L18.4741804,29.9840954 C18.4741804,30.3189805 18.7612723,30.5904784 19.1155832,30.5904784 C19.469894,30.5904784 19.7569859,30.3189805 19.7569859,29.9840954 L19.7569859,29.7819677 L22.1943162,29.7819677 C23.2081601,29.7819677 24.033004,29.0021592 24.033004,28.0436699 L24.033004,21.0096273 C24.033004,20.0511379 23.2081601,19.2713294 22.1943162,19.2713294 L22.1943162,19.2713294 Z M22.6258612,28.2365035 C22.6258612,28.5262737 22.3612158,28.7620354 22.0359452,28.7620354 L19.4493906,28.7620354 L19.4493906,20.676929 L22.0359452,20.676929 C22.3612158,20.676929 22.6258612,20.9126907 22.6258612,21.202461 L22.6258612,28.2365035 L22.6258612,28.2365035 Z" id="Shape"></path>
                    </g>
                </g>
            </g>
            <g id="big-clam" opacity="0.800000012" transform="translate(248.712611, 329.630219) rotate(22.500000) translate(-248.712611, -329.630219) translate(229.212611, 312.130219)" fill="#FFFFFF">
                <g id="Capa_1">
                    <path d="M36.6586737,7.248105 C34.8587176,4.88125899 32.4021641,3.04838089 29.3570111,1.80031713 C26.4423057,0.605666205 23.1258754,1.77635684e-15 19.5000478,1.77635684e-15 C15.8742203,1.77635684e-15 12.5577899,0.605746405 9.64308458,1.80031713 C6.59793153,3.04838089 4.14129884,4.88125899 2.34134267,7.248105 C-0.991809712,11.6309244 -0.74652685,17.4125826 2.9517364,21.6350032 L7.44703026,26.7674468 C7.44703026,26.767527 7.44710952,26.767527 7.44710952,26.7676072 L7.44710952,26.7676072 L8.31372279,27.7570278 C8.3798184,27.832335 8.45352214,27.9191108 8.53538876,28.0153502 C8.96952754,28.5254988 9.64474886,29.3190723 10.6119321,30.1361443 C10.6321412,30.1552318 10.6530635,30.1731162 10.6752539,30.1888353 C11.5217373,30.8954726 12.5862412,31.6155032 13.9031605,32.1813905 C14.5607088,34.2543056 17.2822787,35 19.4998893,35 C21.7175,35 24.4390699,34.2543056 25.0966182,32.1813905 C26.417183,31.6138993 27.4840644,30.8914627 28.3316574,30.1829006 C28.35044,30.1691063 28.36843,30.154109 28.3857861,30.1379087 C29.354158,29.3201951 30.0300134,28.5258998 30.4644692,28.0153502 C30.5463358,27.9191108 30.6200395,27.8324152 30.6860559,27.7570278 L31.5521144,26.7682488 C31.5522729,26.7680082 31.5525899,26.7677676 31.5527484,26.767527 C31.5534617,26.766725 31.5540164,26.7660032 31.5547297,26.7652012 L34.5174613,23.3825491 C34.5175406,23.3823887 34.5176991,23.3823085 34.5177784,23.3822283 C34.5182539,23.3817471 34.5186501,23.3811857 34.5190464,23.3807045 L36.0481215,21.634923 C39.7465433,17.4125024 39.9918261,11.6308442 36.6586737,7.248105 L36.6586737,7.248105 Z M34.0371596,22.493879 L32.9757657,23.7029925 C32.9565127,23.1438108 32.8493028,22.5478451 32.6526182,21.9160633 C32.2258558,20.5455357 31.3911845,19.039246 30.1715323,17.4389796 C29.076186,16.0019019 27.5836359,14.8899918 25.7353439,14.1341446 C23.9760474,13.4145975 21.9766869,13.0498225 19.7929446,13.0498225 C17.6092023,13.0498225 15.6099218,13.4145975 13.8505453,14.1341446 C12.0021734,14.8899918 10.5097032,16.0018212 9.41435695,17.4389796 C8.19470474,19.0391653 7.35995358,20.5455357 6.93327103,21.9160633 C6.73658643,22.5478451 6.62929666,23.1438108 6.6101235,23.7029925 L5.62262622,22.5780144 C3.14042186,19.7498391 3.33031596,16.4153189 6.18711581,12.6672203 C8.97329454,9.01164644 13.8052487,6.99844706 19.7930245,6.99844706 C25.7808003,6.99844706 30.6127545,9.01164644 33.3989332,12.6672203 C34.5591487,14.1895627 35.2944391,15.6551963 35.5841934,17.0234653 C36.0094379,19.0326313 35.5034265,20.8220612 34.0371596,22.493879 L34.0371596,22.493879 Z M24.7920341,31.1954446 C24.603123,31.2719778 24.4649305,31.4403345 24.4244037,31.6432782 C24.118326,33.1772944 21.9076483,33.8638854 19.8524171,33.8638854 C17.8215823,33.8638854 15.6401963,33.19283 15.2934312,31.6968351 C15.2908632,31.6735318 15.2873322,31.6500648 15.2820356,31.6266797 C15.2474474,31.4738586 15.2300329,31.3086091 15.2300329,31.1355918 C15.2300329,29.2300299 17.3036416,27.6797422 19.8524974,27.6797422 C20.8037942,27.6797422 21.7183359,27.896341 22.4972533,28.3063168 C22.7924972,28.4616727 23.1556335,28.3437658 23.3081909,28.0427843 C23.460668,27.7418846 23.3449459,27.3719742 23.0495415,27.2165366 C22.1006523,26.717272 20.9950326,26.4532489 19.8524171,26.4532489 C16.7798425,26.4532489 14.2569078,28.3750005 14.0427175,30.8012497 C13.1198297,30.3384528 12.3491781,29.8016576 11.7092557,29.2664158 C11.4978743,28.9554589 11.4903307,28.6149843 11.4966705,28.0579928 C11.4975533,27.9802331 11.4983558,27.9020646 11.4983558,27.8234055 C11.4983558,25.4510402 15.0062927,21.9320672 19.8524171,21.9320672 C24.6985416,21.9320672 28.2064785,25.4510402 28.2064785,27.8234055 C28.2064785,27.9022281 28.2073613,27.9805602 28.2082441,28.0584016 C28.2145839,28.6150661 28.2070403,28.9553771 27.9958996,29.2661706 C27.164177,29.9617558 26.1131281,30.6607753 24.7920341,31.1954446 L24.7920341,31.1954446 Z M29.6086463,26.7256621 C29.539071,26.8046632 29.4611373,26.8955106 29.3747653,26.9964432 C29.1988371,27.2019103 28.990828,27.4444367 28.7476332,27.7092947 C28.747474,27.6852021 28.7470759,27.6612697 28.7470759,27.6370971 C28.7470759,26.0939729 27.7289216,24.3568276 26.023533,22.9901954 C24.1558288,21.4936554 21.7560414,20.6693859 19.2661406,20.6693859 C16.7762398,20.6693859 14.3764525,21.4936554 12.5087483,22.9901954 C10.8033597,24.3567475 9.78520534,26.0938928 9.78520534,27.6370971 C9.78520534,27.6612697 9.78480731,27.6852021 9.7846481,27.7092947 C9.54137369,27.4444367 9.33336453,27.2018302 9.15743637,26.9964432 C9.07106441,26.8955106 8.99321023,26.8046632 8.92355542,26.7256621 L8.05147718,25.7363465 C6.16864792,23.5969916 8.38279526,20.017206 9.87054243,18.073393 C11.7891146,15.5669668 15.1258586,14.1865674 19.2661406,14.1865674 C23.4064226,14.1865674 26.7432463,15.5668868 28.6617388,18.073393 C30.1490084,20.0167258 32.3623597,23.5952307 30.482237,25.7346656 L29.6086463,26.7256621 L29.6086463,26.7256621 Z M36.3037405,16.6030046 C35.9789101,15.097749 35.1753155,13.5119094 33.9150718,11.8893123 C32.3974528,9.93542533 30.3271941,8.42262973 27.7616839,7.39310247 C25.3097613,6.4091295 22.5211185,5.91023133 19.4730394,5.91023133 C16.4249603,5.91023133 13.6362382,6.4091295 11.1843948,7.39310247 C8.61888467,8.42262973 6.54862591,9.93542533 5.03100687,11.8893123 C3.55214871,13.7933251 2.71668936,15.6649001 2.54793291,17.4520426 C2.50679407,17.8880287 2.50544655,18.3171031 2.54325624,18.7388731 C0.506843893,15.2932398 0.719592744,11.139944 3.25347595,7.87754892 C6.57850904,3.59646541 12.3387397,1.2388731 19.4730394,1.2388731 C26.607339,1.2388731 32.3675697,3.59654395 35.6925235,7.87754892 C38.2057184,11.1132397 38.4359849,15.2254581 36.4527598,18.654362 C36.5039654,17.987934 36.4549,17.3036769 36.3037405,16.6030046 L36.3037405,16.6030046 Z" id="Shape"></path>
                </g>
            </g>
            <g id="crab" opacity="0.800000012" transform="translate(911.500000, 247.000000) rotate(-22.500000) translate(-911.500000, -247.000000) translate(891.000000, 227.000000)" fill="#FFFFFF">
                <g id="Layer_1">
                    <path d="M29.9352136,26.8863413 C29.5293011,26.6856391 29.0511614,26.8832216 28.8677849,27.3282154 C28.6893131,27.7610769 28.4547525,28.1816329 28.1706692,28.5783576 C27.8955253,28.9624301 27.9567562,29.5180008 28.3072918,29.8194007 C28.4549899,29.9464427 28.6306136,30.0078839 28.8048926,30.0078839 C29.0441206,30.0078839 29.2810545,29.8918475 29.4402235,29.6697406 C29.8045242,29.1612258 30.1068028,28.6183074 30.3385945,28.0557174 C30.5219711,27.6108103 30.3413633,27.0873034 29.9352136,26.8863413 L29.9352136,26.8863413 Z" id="Shape"></path>
                    <path d="M26.9205137,30.1060197 C26.6860383,29.7434347 26.2060016,29.642148 25.8482141,29.8798948 C24.3910955,30.8481221 22.522506,31.3813399 20.5864896,31.3813399 C20.1587695,31.3813399 19.8120679,31.7328418 19.8120679,32.1663121 C19.8120679,32.5997824 20.1587695,32.9512843 20.5864896,32.9512843 C22.8207635,32.9512843 24.9909515,32.3268624 26.697428,31.192928 C27.0551396,30.9551813 27.1549891,30.4686047 26.9205137,30.1060197 L26.9205137,30.1060197 Z" id="Shape"></path>
                    <path d="M36.2185352,23.8657967 C36.0654258,23.7138025 35.857623,23.6283455 35.6410117,23.6283455 C35.4244004,23.6283455 35.2165977,23.7138025 35.0634883,23.8657967 L33.5097324,25.4082361 C33.4258906,24.234335 33.0845977,23.0963657 32.5019492,22.0315316 L36.2399961,18.3207102 C36.2415176,18.3191203 36.2431992,18.3175304 36.2447207,18.3159405 L36.2500859,18.3106144 C36.2572129,18.3034598 36.2641797,18.2963053 36.2710664,18.2889123 C36.6115586,17.9429505 36.8370586,17.5089879 36.9237031,17.0318596 L37.7815801,12.3090682 C38.4464688,11.9791644 39.0530605,11.4766772 39.565,10.8164721 C40.4904629,9.62309486 41,8.04838059 41,6.3822472 C41,4.71611381 40.4904629,3.14139955 39.5650801,1.94818126 C38.5909297,0.691923518 37.2762871,7.94948895e-05 35.8629883,7.94948895e-05 C34.9195879,7.94948895e-05 33.997248,0.318933497 33.1955859,0.922299708 C32.9562324,1.10243513 32.8357949,1.3984741 32.8820801,1.69308216 C32.9282051,1.98769022 33.1336055,2.23340892 33.4167617,2.33277753 C34.9705176,2.87819197 36.0556563,4.77414508 36.0556563,6.94348112 C36.0556563,7.50360211 35.9808633,8.049732 35.8427285,8.5615996 C35.1550977,8.19791048 34.5391367,7.53396916 34.1553223,6.711992 C33.8160313,5.98524972 33.6827012,5.19371911 33.7796758,4.48327328 C33.8212363,4.17872836 33.6859043,3.87704525 33.4300547,3.70422336 C33.1742051,3.53124249 32.8418809,3.51669492 32.5716973,3.66678127 C30.7344648,4.68685969 30.1538984,7.32513609 31.250168,9.67309714 C31.6493574,10.5281442 32.2365703,11.2654593 32.931168,11.8055476 L32.2725254,15.4313095 L29.214582,18.4669013 C27.9662441,17.5992941 26.513707,16.9272443 24.9443359,16.4846167 L25.9217695,14.4467653 C25.9381055,14.4470832 25.9543613,14.4479577 25.9707773,14.4479577 C27.2225586,14.4479577 28.2410723,13.4369417 28.2410723,12.1941981 C28.2410723,10.9514545 27.2226387,9.94043845 25.9707773,9.94043845 C24.718916,9.94043845 23.7004824,10.9514545 23.7004824,12.1941981 C23.7004824,12.8368348 23.9733086,13.4169885 24.409334,13.8278975 L23.3120234,16.115363 C22.390084,15.9562142 21.440998,15.8725856 20.4795801,15.8725856 C19.5311348,15.8725856 18.594541,15.9538294 17.684293,16.1088444 L16.5901855,13.827977 C17.0262109,13.417068 17.2990371,12.8369142 17.2990371,12.1942776 C17.2990371,10.9516134 16.2806035,9.94051795 15.0287422,9.94051795 C13.7768809,9.94051795 12.7584473,10.951534 12.7584473,12.1942776 C12.7584473,13.4369417 13.7768809,14.4480372 15.0287422,14.4480372 C15.0451582,14.4480372 15.0614141,14.4471627 15.07775,14.4468447 L16.050459,16.4748389 C14.4774844,16.9144456 13.0210234,17.584508 11.7686016,18.4505254 L8.72707422,15.43123 L8.06971289,11.8123841 C8.74997656,11.2836636 9.33783008,10.5545365 9.74943164,9.67293815 C10.8456211,7.3249771 10.2651348,4.6867007 8.42790234,3.66662228 C8.15771875,3.51661543 7.82547461,3.531004 7.56954492,3.70406437 C7.31377539,3.87704525 7.17836328,4.17872836 7.21992383,4.48311429 C7.31697852,5.19363961 7.18356836,5.98509073 6.84427734,6.71183301 C6.46062305,7.53388967 5.84466211,8.19783098 5.15703125,8.5615201 C5.01897656,8.04965251 4.94410352,7.50360211 4.94410352,6.94340163 C4.94410352,4.77406559 6.02924219,2.87803298 7.58299805,2.33269804 C7.8661543,2.23332942 8.07155469,1.98761072 8.11767969,1.69300266 C8.16388477,1.3983946 8.04344727,1.10235563 7.80409375,0.922220213 C7.00275195,0.318854002 6.08033203,2.44138043e-14 5.13693164,2.44138043e-14 C3.72371289,2.44138043e-14 2.40899023,0.691844023 1.43483984,1.94810176 C0.509537109,3.14139955 3.56895069e-14,4.71611381 3.56895069e-14,6.3822472 C3.56895069e-14,8.04830109 0.509537109,9.62309486 1.43491992,10.8163131 C1.94685938,11.4764387 2.55345117,11.9790054 3.21833984,12.3089092 L4.0762168,17.0317801 C4.16286133,17.5088289 4.38828125,17.9427915 4.72885352,18.2887533 C4.73574023,18.2961463 4.74270703,18.3033803 4.74983398,18.3104554 L4.75519922,18.3157815 C4.75680078,18.3173714 4.75840234,18.3189613 4.75992383,18.3205512 L8.47178516,22.0053778 C7.8866543,23.0663961 7.54151758,24.2003112 7.45239063,25.3705555 L5.93643164,23.8656377 C5.78332227,23.7136435 5.57551953,23.6281865 5.3589082,23.6281865 C5.14229688,23.6281865 4.93457422,23.7136435 4.78138477,23.8656377 L1.1677793,27.4529241 C0.848828125,27.7695523 0.848828125,28.2829303 1.1677793,28.5996379 C1.32729492,28.7579122 1.53629883,28.8370891 1.74530273,28.8370891 C1.95430664,28.8370891 2.16339063,28.7579122 2.32282617,28.5996379 L5.35898828,25.5855892 L7.58764258,27.7980114 C7.60782227,27.8180441 7.62880273,27.8367254 7.65042383,27.8542143 C8.00036523,29.3197821 8.76094727,30.6963156 9.8886875,31.9024916 L6.67907617,35.0886467 C6.5259668,35.2407205 6.43988281,35.4469302 6.43988281,35.6619639 L6.43988281,39.1892316 C6.43988281,39.6369468 6.80551953,40 7.25659961,40 C7.70767969,40 8.07331641,39.6369468 8.07331641,39.1892316 L8.07331641,35.9979093 L11.0851348,33.008027 C11.1664141,33.0731333 11.2487344,33.1376832 11.3324961,33.2013586 C13.7848887,35.0653547 17.033498,36.0919517 20.4797402,36.0919517 C23.9259824,36.0919517 27.1745117,35.0653547 29.6269043,33.2013586 C29.7183535,33.1318005 29.8079609,33.0612091 29.8964473,32.9899022 L32.9264434,35.9978298 L32.9264434,39.1891521 C32.9264434,39.6368673 33.2920801,39.9999205 33.7431602,39.9999205 C34.1942402,39.9999205 34.559877,39.6368673 34.559877,39.1891521 L34.559877,35.6618844 C34.559877,35.4468507 34.473793,35.2407205 34.3206836,35.0885672 L31.0904121,31.8817434 C32.198373,30.690433 32.9487051,29.3337732 33.3004082,27.8899075 C33.3396465,27.8627998 33.3772832,27.8325917 33.4121973,27.7978524 L35.6408516,25.5854302 L38.6769336,28.5994789 C38.8364492,28.7577532 39.0454531,28.8369301 39.254457,28.8369301 C39.4634609,28.8369301 39.6725449,28.7577532 39.8319805,28.5994789 C40.1509316,28.2828508 40.1509316,27.7694728 39.8319805,27.4527651 L36.2185352,23.8657967 L36.2185352,23.8657967 Z M34.9571944,1.76434858 C35.1016462,1.74019408 35.2480623,1.72807644 35.396197,1.72807644 C37.3705632,1.72807644 38.9768022,3.89834614 38.9768022,6.56600466 C38.9768022,8.94178957 37.7026797,10.9231048 36.0291662,11.3280764 C36.8183725,10.178193 37.2624494,8.70840378 37.2624494,7.1362609 C37.2624494,4.94894571 36.3654566,2.94783829 34.9571944,1.76434858 L34.9571944,1.76434858 Z M26.4642082,11.5203062 C26.9075176,11.5203062 27.2681298,11.8792599 27.2681298,12.3203062 C27.2681298,12.7613525 26.9074165,13.1203062 26.4642082,13.1203062 C26.021,13.1203062 25.6602867,12.7613525 25.6602867,12.3203062 C25.6602867,11.8792599 26.021,11.5203062 26.4642082,11.5203062 L26.4642082,11.5203062 Z M15.270524,12.8359166 C14.8272147,12.8359166 14.4666025,12.4768623 14.4666025,12.0359166 C14.4666025,11.5947697 14.8273158,11.2359166 15.270524,11.2359166 C15.7137323,11.2359166 16.0744456,11.5948703 16.0744456,12.0359166 C16.0744456,12.4769629 15.7137323,12.8359166 15.270524,12.8359166 L15.270524,12.8359166 Z M3.52557382,7.32834257 C3.52557382,8.90048546 3.9696507,10.3702747 4.75885701,11.5201581 C3.08534352,11.1151865 1.81122097,9.13387124 1.81122097,6.75808633 C1.81122097,4.09042781 3.41746,1.92015811 5.39182616,1.92015811 C5.53979723,1.92015811 5.68621329,1.93227575 5.83082882,1.95643025 C4.42256657,3.14000075 3.52557382,5.14110817 3.52557382,7.32834257 L3.52557382,7.32834257 Z M32.6692774,8.43613008 C32.253577,7.68910694 32.1326983,6.89415449 32.2742631,6.21924997 C32.3640227,6.46076873 32.4739288,6.69906724 32.6031718,6.93137459 C33.2315791,8.06040926 34.2511333,8.95009698 35.4332981,9.43687897 C35.2081795,9.73186886 34.9479845,9.99525537 34.6572101,10.21925 C33.8360625,9.88322062 33.1171761,9.24059349 32.6692774,8.43613008 L32.6692774,8.43613008 Z M33.5744701,16.4169988 C33.6939663,16.3008611 33.7740637,16.1520375 33.8040393,15.9904237 L34.4249972,12.6435107 C34.7952649,12.7514375 35.1709752,12.8078088 35.5383184,12.8078088 L35.86147,12.8081247 C35.9215836,12.8081247 35.9813724,12.8051245 36.0411611,12.8027559 L35.3067996,16.7605958 C35.2773927,16.9191305 35.1998948,17.0630591 35.0828356,17.1765914 C35.0763368,17.1829075 35.0700818,17.1892237 35.0638267,17.1956977 L31.5162271,20.6435107 C31.352458,20.4434476 31.1794282,20.2467793 30.9961627,20.0543745 C30.810704,19.85968 30.6156595,19.6715385 30.4137101,19.4888447 L33.5744701,16.4169988 L33.5744701,16.4169988 Z M20.6027368,17.7393205 C24.0359283,17.7393205 27.2773399,18.9232393 29.445874,20.9386268 C27.2773399,22.9542592 24.0362492,24.1393205 20.6027368,24.1393205 C17.1691441,24.1393205 13.9280534,22.9542592 11.7595995,20.9386268 C13.9281337,18.9233209 17.1695452,17.7393205 20.6027368,17.7393205 L20.6027368,17.7393205 Z M8.76657611,7.35470391 C8.89590774,7.12260081 9.00572271,6.8845118 9.09548138,6.64320538 C9.23695472,7.31751654 9.11607731,8.11177008 8.7002914,8.85806163 C8.24007584,9.68433971 7.50689678,10.3180964 6.71678663,10.6432054 C6.42421653,10.4185846 6.16267522,10.1542325 5.93638983,9.85800551 C7.11863207,9.37165148 8.13808552,8.48267114 8.76657611,7.35470391 L8.76657611,7.35470391 Z M6.16649119,17.189924 C6.16029562,17.1834269 6.15393701,17.1770883 6.14741536,17.1707498 C6.02994412,17.0568138 5.95217344,16.9123734 5.92266297,16.7532751 L5.18571642,12.7813629 C5.24571561,12.7838191 5.30563328,12.7867507 5.36604007,12.7867507 L5.70671481,12.7884938 C6.07592176,12.7884938 6.44610697,12.7330313 6.80871075,12.6276524 L7.4307132,15.9802061 C7.46079432,16.1423945 7.54117366,16.2916681 7.66109052,16.4082979 L10.8131674,19.4718125 C10.6027626,19.6612568 10.3998578,19.8563265 10.207306,20.0586064 C10.0302432,20.2446437 9.86255528,20.4345634 9.70359004,20.6276524 L6.16649119,17.189924 L6.16649119,17.189924 Z M20.2830234,35.0110235 C14.0770236,35.0110235 9.02812142,31.1624427 9.02812142,26.4321616 C9.02812142,24.9410485 9.53112498,23.4962137 10.4906366,22.2110235 C12.919847,24.4676588 16.5081285,25.7932623 20.2830234,25.7932623 C24.0579183,25.7932623 27.6461998,24.4676588 30.0754101,22.2110235 C31.0348428,23.4962137 31.5379253,24.9409681 31.5379253,26.4321616 C31.5378464,31.162523 26.4889442,35.0110235 20.2830234,35.0110235 L20.2830234,35.0110235 Z" id="Shape"></path>
                </g>
            </g>
            <g id="molecule" opacity="0.800000012" transform="translate(115.000000, 405.000000)" fill="#FFFFFF">
                <g id="Capa_1">
                    <path d="M35.0887025,25.4981451 C34.9790859,25.4981451 34.8718275,25.507952 34.7672526,25.5258498 L31.9299061,20.2299995 C32.2496484,19.88651 32.4459499,19.4256637 32.4459499,18.9192967 C32.4459499,18.4129297 32.2496484,17.9520834 31.9299061,17.608594 L34.7673339,12.3127437 C34.8719088,12.3306414 34.9791672,12.3404484 35.0887838,12.3404484 C36.142502,12.3404484 36.999756,11.4789053 36.999756,10.419915 C36.999756,9.36092478 36.142502,8.49938169 35.0887838,8.49938169 C34.0350656,8.49938169 33.1778116,9.36092478 33.1778116,10.419915 C33.1778116,10.9262821 33.3741132,11.3871283 33.6938554,11.7306178 L30.8564276,17.0264681 C30.7518527,17.0085704 30.6445943,16.9987634 30.5349777,16.9987634 C29.6944752,16.9987634 28.9795277,17.5471369 28.7243519,18.3063606 L22.5873663,18.3063606 C22.3321905,17.5471369 21.6172429,16.9987634 20.7767404,16.9987634 C20.6671238,16.9987634 20.5598654,17.0085704 20.4552905,17.0264681 L17.6178627,11.7306178 C17.9376049,11.3871283 18.1339065,10.9262821 18.1339065,10.419915 C18.1339065,9.91354804 17.9376049,9.45270176 17.6178627,9.10921232 L20.4552905,3.81336201 C20.5598654,3.83125975 20.6671238,3.84106672 20.7767404,3.84106672 C21.8304586,3.84106672 22.6877126,2.97952363 22.6877126,1.92053336 C22.6877126,0.861543094 21.8304586,0 20.7767404,0 C19.7230222,0 18.8657682,0.861543094 18.8657682,1.92053336 C18.8657682,2.42690037 19.0620698,2.88774665 19.381812,3.23123609 L16.5443842,8.5270864 C16.4398093,8.50918867 16.3325509,8.49938169 16.2229343,8.49938169 C15.3824318,8.49938169 14.6674842,9.04775526 14.4123085,9.80697887 L8.27532285,9.80697887 C8.02014708,9.04775526 7.30519951,8.49938169 6.46469701,8.49938169 C5.4109788,8.49938169 4.5537248,9.36092478 4.5537248,10.419915 C4.5537248,10.9262821 4.75002637,11.3871283 5.06976862,11.7306178 L2.23234081,17.0264681 C2.12784723,17.0085704 2.02050751,16.9987634 1.91097221,16.9987634 C0.857254002,16.9987634 0,17.8603065 0,18.9192967 C0,19.978287 0.857254002,20.8398301 1.91097221,20.8398301 C2.02058883,20.8398301 2.12784723,20.8300231 2.23242213,20.8121254 L5.06984994,26.1079757 C4.75010769,26.4514651 4.55380612,26.9123114 4.55380612,27.4186784 C4.55380612,27.9538126 4.77295804,28.4383591 5.12555274,28.7869154 L2.23250345,34.186638 C2.12792855,34.1687403 2.02067015,34.1589333 1.91105353,34.1589333 C0.85733532,34.1589333 8.13179664e-05,35.0204764 8.13179664e-05,36.0794666 C8.13179664e-05,37.1384569 0.85733532,38 1.91105353,38 C2.96477174,38 3.82202574,37.1384569 3.82202574,36.0794666 C3.82202574,35.5730996 3.62572417,35.1122533 3.30598193,34.7687639 L6.22358924,29.3233572 C6.30271162,29.3334093 6.38313509,29.3392118 6.46494097,29.3392118 C7.30544347,29.3392118 8.02039103,28.7908382 8.27556681,28.0316146 L14.4125524,28.0316146 C14.6677282,28.7908382 15.3826758,29.3392118 16.2231783,29.3392118 C16.3327949,29.3392118 16.4400533,29.3294048 16.5446282,29.3115071 L19.382056,34.6073574 C19.0623137,34.9508468 18.8660122,35.4116931 18.8660122,35.9180601 C18.8660122,36.9770504 19.7232662,37.8385935 20.7769844,37.8385935 C21.6174869,37.8385935 22.3324344,37.2902199 22.5876102,36.5309963 L28.7245958,36.5309963 C28.9797716,37.2902199 29.6947192,37.8385935 30.5352217,37.8385935 C31.5889399,37.8385935 32.4461939,36.9770504 32.4461939,35.9180601 C32.4461939,35.4116931 32.2498923,34.9508468 31.9301501,34.6073574 L34.7675779,29.3115071 C34.8721528,29.3294048 34.9794112,29.3392118 35.0890278,29.3392118 C36.142746,29.3392118 37,28.4776687 37,27.4186784 C37,26.3596882 36.1424207,25.4981451 35.0887025,25.4981451 L35.0887025,25.4981451 Z M2.41304348,37.1914894 C1.96951662,37.1914894 1.60869565,36.828801 1.60869565,36.3829787 C1.60869565,35.9371564 1.96951662,35.5744681 2.41304348,35.5744681 C2.85657033,35.5744681 3.2173913,35.9371564 3.2173913,36.3829787 C3.2173913,36.828801 2.8564757,37.1914894 2.41304348,37.1914894 L2.41304348,37.1914894 Z M30.621642,34.2339323 C29.780562,34.2339323 29.0651233,34.7961195 28.8097722,35.5744681 L22.6685701,35.5744681 C22.413219,34.7961195 21.6977802,34.2339323 20.8567002,34.2339323 C20.7470083,34.2339323 20.6396762,34.2439863 20.5350295,34.2623349 L17.6956522,28.8330812 C18.0156141,28.4809393 18.2120505,28.0084842 18.2120505,27.4893617 C18.2120505,26.9702392 18.0156141,26.4977841 17.6956522,26.1456422 L20.5350295,20.7163885 C20.6396762,20.7347371 20.7470083,20.7447911 20.8567002,20.7447911 C21.6977802,20.7447911 22.413219,20.1826039 22.6685701,19.4042553 L28.8097722,19.4042553 C29.0651233,20.1826039 29.780562,20.7447911 30.621642,20.7447911 C30.7313339,20.7447911 30.838666,20.7347371 30.9433128,20.7163885 L33.7826087,26.1456422 C33.4626468,26.4977841 33.2662103,26.9702392 33.2662103,27.4893617 C33.2662103,28.0084842 33.4626468,28.4809393 33.7826087,28.8330812 L30.9432314,34.2623349 C30.838666,34.2439863 30.7312526,34.2339323 30.621642,34.2339323 L30.621642,34.2339323 Z M14.3313989,27.4893617 L8.1902589,27.4893617 C7.93491039,26.7110131 7.21947885,26.1488259 6.37840738,26.1488259 C6.26871656,26.1488259 6.16138556,26.1588799 6.05673986,26.1772285 L3.2173913,20.7479749 C3.53734999,20.3958329 3.73378445,19.9233778 3.73378445,19.4042553 C3.73378445,18.8851328 3.53734999,18.4126778 3.2173913,18.0605358 L6.05673986,12.6312821 C6.16146693,12.6496307 6.26879794,12.6596847 6.37848876,12.6596847 C7.21956023,12.6596847 7.93499176,12.0974975 8.19034028,11.3191489 L14.3314802,11.3191489 C14.5868287,12.0974975 15.3022603,12.6596847 16.1433317,12.6596847 C16.2530226,12.6596847 16.3603536,12.6496307 16.4649993,12.6312821 L19.3043478,18.0605358 C18.9843891,18.4126778 18.7879547,18.8851328 18.7879547,19.4042553 C18.7879547,19.9233778 18.9843891,20.3958329 19.3043478,20.7479749 L16.4649993,26.1772285 C16.3603536,26.1588799 16.2530226,26.1488259 16.1433317,26.1488259 C15.3021789,26.1488259 14.5867474,26.7110131 14.3313989,27.4893617 L14.3313989,27.4893617 Z M35.3913043,9.70212766 C35.8348312,9.70212766 36.1956522,10.064816 36.1956522,10.5106383 C36.1956522,10.9564606 35.8348312,11.3191489 35.3913043,11.3191489 C34.9477775,11.3191489 34.5869565,10.9564606 34.5869565,10.5106383 C34.5869565,10.064816 34.9477775,9.70212766 35.3913043,9.70212766 L35.3913043,9.70212766 Z M30.5652174,18.5957447 C31.0087442,18.5957447 31.3695652,18.958433 31.3695652,19.4042553 C31.3695652,19.8500776 31.0087442,20.212766 30.5652174,20.212766 C30.1216905,20.212766 29.7608696,19.8500776 29.7608696,19.4042553 C29.7608696,18.958433 30.1216905,18.5957447 30.5652174,18.5957447 L30.5652174,18.5957447 Z M21.7173913,19.4042553 C21.7173913,19.8500776 21.3565703,20.212766 20.9130435,20.212766 C20.4695166,20.212766 20.1086957,19.8500776 20.1086957,19.4042553 C20.1086957,18.958433 20.4695166,18.5957447 20.9130435,18.5957447 C21.3565703,18.5957447 21.7173913,18.958433 21.7173913,19.4042553 L21.7173913,19.4042553 Z M20.9130435,1.61702128 C21.3565703,1.61702128 21.7173913,1.97970964 21.7173913,2.42553191 C21.7173913,2.87135419 21.3565703,3.23404255 20.9130435,3.23404255 C20.4695166,3.23404255 20.1086957,2.87135419 20.1086957,2.42553191 C20.1086957,1.97970964 20.4695166,1.61702128 20.9130435,1.61702128 L20.9130435,1.61702128 Z M16.0869565,9.70212766 C16.5304834,9.70212766 16.8913043,10.064816 16.8913043,10.5106383 C16.8913043,10.9564606 16.5304834,11.3191489 16.0869565,11.3191489 C15.6434297,11.3191489 15.2826087,10.9564606 15.2826087,10.5106383 C15.2826087,10.064816 15.6434297,9.70212766 16.0869565,9.70212766 L16.0869565,9.70212766 Z M6.43478261,9.70212766 C6.87830946,9.70212766 7.23913043,10.064816 7.23913043,10.5106383 C7.23913043,10.9564606 6.87830946,11.3191489 6.43478261,11.3191489 C5.99125575,11.3191489 5.63043478,10.9564606 5.63043478,10.5106383 C5.63043478,10.064816 5.99125575,9.70212766 6.43478261,9.70212766 L6.43478261,9.70212766 Z M1.60869565,19.4042553 C1.60869565,18.958433 1.96951662,18.5957447 2.41304348,18.5957447 C2.85657033,18.5957447 3.2173913,18.958433 3.2173913,19.4042553 C3.2173913,19.8500776 2.85657033,20.212766 2.41304348,20.212766 C1.96951662,20.212766 1.60869565,19.8500776 1.60869565,19.4042553 L1.60869565,19.4042553 Z M6.43478261,28.2978723 C5.99125575,28.2978723 5.63043478,27.935184 5.63043478,27.4893617 C5.63043478,27.0435394 5.99125575,26.6808511 6.43478261,26.6808511 C6.87830946,26.6808511 7.23913043,27.0435394 7.23913043,27.4893617 C7.23913043,27.935184 6.87821483,28.2978723 6.43478261,28.2978723 L6.43478261,28.2978723 Z M15.2826087,27.4893617 C15.2826087,27.0435394 15.6434297,26.6808511 16.0869565,26.6808511 C16.5304834,26.6808511 16.8913043,27.0435394 16.8913043,27.4893617 C16.8913043,27.935184 16.5304834,28.2978723 16.0869565,28.2978723 C15.6434297,28.2978723 15.2826087,27.935184 15.2826087,27.4893617 L15.2826087,27.4893617 Z M20.9130435,37.1914894 C20.4695166,37.1914894 20.1086957,36.828801 20.1086957,36.3829787 C20.1086957,35.9371564 20.4695166,35.5744681 20.9130435,35.5744681 C21.3565703,35.5744681 21.7173913,35.9371564 21.7173913,36.3829787 C21.7173913,36.828801 21.3564757,37.1914894 20.9130435,37.1914894 L20.9130435,37.1914894 Z M30.5652174,37.1914894 C30.1216905,37.1914894 29.7608696,36.828801 29.7608696,36.3829787 C29.7608696,35.9371564 30.1216905,35.5744681 30.5652174,35.5744681 C31.0087442,35.5744681 31.3695652,35.9371564 31.3695652,36.3829787 C31.3695652,36.828801 31.0086496,37.1914894 30.5652174,37.1914894 L30.5652174,37.1914894 Z M35.3913043,28.2978723 C34.9477775,28.2978723 34.5869565,27.935184 34.5869565,27.4893617 C34.5869565,27.0435394 34.9477775,26.6808511 35.3913043,26.6808511 C35.8348312,26.6808511 36.1956522,27.0435394 36.1956522,27.4893617 C36.1956522,27.935184 35.8347366,28.2978723 35.3913043,28.2978723 L35.3913043,28.2978723 Z" id="Shape"></path>
                </g>
            </g>
            <g id="flasks" opacity="0.800000012" transform="translate(115.000000, 246.000000) rotate(-22.500000) translate(-115.000000, -246.000000) translate(96.000000, 227.000000)" fill="#FFFFFF">
                <g id="Group" transform="translate(0.000000, -0.000000)">
                    <path d="M30.7251091,15.656034 L30.7251091,6.36232372 C31.6409204,6.26142113 32.3555368,5.48945167 32.3555368,4.55464742 C32.3555368,3.55152371 31.5327415,2.73549021 30.5213057,2.73549021 L22.3691672,2.73549021 C21.3577313,2.73549021 20.534936,3.55152371 20.534936,4.55464742 C20.534936,5.48937082 21.2495525,6.26142113 22.1653637,6.36232372 L22.1653637,15.6561958 C20.3168663,16.3686586 18.6720093,17.5372043 17.3877214,19.054624 C17.1705484,19.3111656 17.2042983,19.6935928 17.4628841,19.9089002 C17.5775032,20.0043049 17.7169863,20.0508753 17.8556542,20.0508753 C18.0301099,20.0508753 18.2033429,19.9772196 18.3242391,19.8343552 C19.561,18.3731273 21.1698245,17.2728201 22.9768276,16.6523662 C23.2231037,16.5677956 23.3881845,16.3377733 23.3881845,16.0793721 L23.3881845,6.37380462 L26.8528433,6.37380462 C27.1905049,6.37380462 27.4642537,6.10230552 27.4642537,5.76741889 C27.4642537,5.43253226 27.1905049,5.16103315 26.8528433,5.16103315 L22.3691672,5.16103315 C22.0319947,5.16103315 21.7577568,4.88904894 21.7577568,4.55464742 C21.7577568,4.2202459 22.0319947,3.94826168 22.3691672,3.94826168 L30.5213057,3.94826168 C30.8584781,3.94826168 31.132716,4.2202459 31.132716,4.55464742 C31.132716,4.88904894 30.8584781,5.16103315 30.5213057,5.16103315 L29.2984849,5.16103315 C28.9608233,5.16103315 28.6870745,5.43253226 28.6870745,5.76741889 C28.6870745,6.10230552 28.9608233,6.37380462 29.2984849,6.37380462 L29.5022883,6.37380462 L29.5022883,16.0792913 C29.5022883,16.3376925 29.6674507,16.5677956 29.9136453,16.6522854 C34.1779474,18.1165048 37.0430165,22.1087868 37.0430165,26.5865816 C37.0430165,32.3821739 32.2888523,37.0972677 26.4452364,37.0972677 C25.0676065,37.0972677 23.7265797,36.8383814 22.4594929,36.3278855 C22.1467768,36.2017572 21.7900392,36.3511707 21.6629474,36.6613976 C21.5358556,36.9716246 21.6865071,37.3253496 21.9993046,37.4513969 C23.4132931,38.0210761 24.9090474,38.3099583 26.4452364,38.3099583 C32.9631157,38.3099583 38.2658372,33.0508152 38.2658372,26.5865008 C38.2658372,21.7377596 35.253459,17.3992718 30.7251091,15.656034 L30.7251091,15.656034 Z" id="Shape"></path>
                    <ellipse id="Oval" cx="30.8760846" cy="28.2502773" rx="0.404255319" ry="0.404255319"></ellipse>
                    <ellipse id="Oval" cx="28.1445372" cy="30.6193357" rx="0.404255319" ry="0.404255319"></ellipse>
                    <path d="M23.197298,33.6581723 C22.8882749,33.5132603 22.5201507,33.6466124 22.375242,33.9563359 C22.2304157,34.2660595 22.363702,34.6347387 22.6728901,34.7798158 C23.9353598,35.3721797 25.2865223,35.6725727 26.688955,35.6725727 C31.9158073,35.6725727 36.1681938,31.412821 36.1681938,26.1769158 C36.1681938,24.5079095 35.7294287,22.8659866 34.8992946,21.4285918 C34.7733444,21.210522 34.5282855,21.0903813 34.2790227,21.1253914 L34.0539938,21.1567683 C34.0258034,21.1606492 33.9977778,21.1665943 33.9704117,21.1743559 C33.0358412,21.4400692 32.5317929,21.845575 32.1268234,22.1713999 C31.6781669,22.5324 31.3816728,22.7708649 30.5263982,22.7708649 C29.7960022,22.7708649 29.4664544,22.4872337 29.010297,22.0946915 C28.5054245,21.6602033 27.8770746,21.1194463 26.6885429,21.1194463 C25.5000936,21.1194463 24.8718262,21.6602033 24.3669537,22.0947741 C23.9108786,22.4873163 23.5814133,22.7708649 22.8511822,22.7708649 C21.99599,22.7708649 21.6996607,22.5324 21.2510042,22.1713999 C20.8460347,21.845575 20.3420689,21.4400692 19.4076632,21.1743559 C19.3802147,21.1665117 19.3522715,21.1606492 19.3239987,21.1567683 L19.0989698,21.1253914 C18.8502016,21.0904639 18.6057196,21.209944 18.4795221,21.4271881 C18.4741643,21.4363535 18.4689713,21.445684 18.4632838,21.4562531 C18.293152,21.7527653 18.3951981,22.131353 18.6911976,22.3017794 C18.8197856,22.375763 18.9637052,22.3983874 19.0994643,22.3759281 L19.1097679,22.3774144 C19.7766117,22.5737681 20.1169576,22.8475733 20.4767565,23.1371495 C21.009737,23.5660229 21.5609341,24.0095114 22.8511822,24.0095114 C24.0396314,24.0095114 24.6678989,23.4687544 25.1727714,23.0341836 C25.6288464,22.6416414 25.9583118,22.3580928 26.6885429,22.3580928 C27.4189388,22.3580928 27.7484866,22.6417239 28.2046441,23.0342661 C28.7095166,23.4687544 29.3378665,24.0095114 30.5263982,24.0095114 C31.8167286,24.0095114 32.3679257,23.5660229 32.9010711,23.1372321 C33.2186668,22.8816751 33.5209309,22.6385037 34.0459983,22.4498291 C34.6267047,23.599299 34.9318538,24.8785704 34.9318538,26.1769983 C34.9318538,30.7299594 31.2341264,34.4340913 26.6890375,34.4340913 C25.4691831,34.4339262 24.2944169,34.1729195 23.197298,33.6581723 L23.197298,33.6581723 Z" id="Shape"></path>
                    <path d="M14.8151052,15.6402462 L14.8151052,3.59966324 C15.7337723,3.49876111 16.4506173,2.72679515 16.4506173,1.79199515 C16.4506173,0.788876004 15.6252561,-0.0271537832 14.6106661,-0.0271537832 L6.43310538,-0.0271537832 C5.41851542,-0.0271537832 4.59315421,0.788876004 4.59315421,1.79199515 C4.59315421,2.7267143 5.30999918,3.49876111 6.22866636,3.59966324 L6.22866636,13.3166675 C6.22866636,13.6515526 6.50326885,13.9230505 6.84198342,13.9230505 C7.18069799,13.9230505 7.45530048,13.6515526 7.45530048,13.3166675 L7.45530048,3.61114409 L10.9307638,3.61114409 C11.2694784,3.61114409 11.5440809,3.33964622 11.5440809,3.00476111 C11.5440809,2.669876 11.2694784,2.39837813 10.9307638,2.39837813 L6.43310538,2.39837813 C6.09488147,2.39837813 5.81978832,2.12639515 5.81978832,1.79199515 C5.81978832,1.45759515 6.09488147,1.18561217 6.43310538,1.18561217 L14.6106661,1.18561217 C14.9488901,1.18561217 15.2239832,1.45759515 15.2239832,1.79199515 C15.2239832,2.12639515 14.9488901,2.39837813 14.6106661,2.39837813 L13.384032,2.39837813 C13.0453175,2.39837813 12.770715,2.669876 12.770715,3.00476111 C12.770715,3.33964622 13.0453175,3.61114409 13.384032,3.61114409 L13.5884711,3.61114409 L13.5884711,15.7421994 C13.5884711,15.8096292 13.5998379,15.8766547 13.6221626,15.9403654 L19.5827049,32.9800505 C19.9426811,34.0091228 19.8614779,34.9637313 19.354142,35.6680249 C18.8467244,36.3722377 17.9608492,36.7601611 16.8595771,36.7601611 L4.18435795,36.7601611 C3.08308584,36.7601611 2.1971289,36.3723186 1.68971126,35.6680249 C1.18237539,34.9637313 1.10117221,34.0091228 1.46114843,32.9801313 L7.4216907,15.9405271 C7.53241487,15.6239952 7.36264871,15.2786803 7.04257898,15.1692079 C6.72250926,15.0598164 6.37316386,15.2275824 6.26243969,15.5440335 L0.301815645,32.5836377 C-0.19145482,33.9935994 -0.0533358188,35.3388803 0.690576884,36.37151 C1.43448959,37.4041398 2.67527088,37.9728462 4.18427617,37.9728462 L16.8594954,37.9728462 C18.3685006,37.9728462 19.6092819,37.4041398 20.3531946,36.37151 C21.0971073,35.3388803 21.2352263,33.9935994 20.7419559,32.5836377 L14.8151052,15.6402462 L14.8151052,15.6402462 Z" id="Shape"></path>
                    <path d="M5.61448891,28.3236103 C5.45772395,28.1989091 5.25179552,28.1591663 5.06178982,28.2172648 C4.87161996,28.2752791 4.72027201,28.4238092 4.65543205,28.6162078 L2.9267495,33.7439476 C2.69923511,34.4189006 2.72361166,35.0062006 2.99544703,35.3976498 C3.2672824,35.7890989 3.80028328,36.004737 4.49645104,36.004737 L17.2182151,36.004737 C17.9143008,36.004737 18.4473838,35.7890989 18.719137,35.3976498 C18.9910545,35.0062006 19.015431,34.4188164 18.7878346,33.7439476 L17.05907,28.6160394 C16.99423,28.4236408 16.8429641,28.2751949 16.6527943,28.2171806 C16.4626244,28.1590821 16.2567781,28.1987407 16.1000952,28.3235261 C15.7643227,28.590695 15.4464427,28.7951344 14.6782944,28.7951344 C13.9511019,28.7951344 13.6228804,28.5059049 13.1686724,28.1056147 C12.6659575,27.6625505 12.040293,27.1111199 10.8568406,27.1111199 C9.67347033,27.1111199 9.04788784,27.6625505 8.54517297,28.1056989 C8.09104703,28.5059891 7.76298967,28.7951344 7.03579722,28.7951344 C6.26789513,28.794966 5.95009725,28.590695 5.61448891,28.3236103 L5.61448891,28.3236103 Z M9.36647074,29.0533291 C9.82184134,28.6467271 10.1507978,28.3530226 10.8799011,28.3530226 C11.6091689,28.3530226 11.9382077,28.6468127 12.3936606,29.0534147 C12.8977533,29.5034651 13.5251327,30.0635906 14.7118287,30.0635906 C15.3570673,30.0635906 15.8215733,29.9435087 16.1841909,29.7745901 L17.6659354,34.2269419 C17.7535035,34.4901128 17.7583592,34.6624526 17.7497176,34.7367767 C17.6849469,34.7695341 17.5266823,34.8211077 17.2587108,34.8211077 L4.502079,34.8211077 C4.23410743,34.8211077 4.07584289,34.7695341 4.01107213,34.7367767 C4.00243054,34.6624526 4.00728629,34.4901128 4.09485439,34.2269419 L5.5765166,29.7747612 C5.93896954,29.9436798 6.40339324,30.0636761 7.0484673,30.0636761 C8.23516326,30.0635051 8.86246034,29.5033796 9.36647074,29.0533291 L9.36647074,29.0533291 Z" id="Shape"></path>
                </g>
            </g>
        </g>
    </g>
</svg>