<?xml version="1.0" encoding="UTF-8" standalone="no"?>
<svg width="36px" height="36px" viewBox="0 0 36 36" version="1.1" xmlns="http://www.w3.org/2000/svg" xmlns:xlink="http://www.w3.org/1999/xlink">
    <!-- Generator: Sketch 39.1 (31720) - http://www.bohemiancoding.com/sketch -->
    <title>behance-logo-button</title>
    <desc>Created with Sketch.</desc>
    <defs></defs>
    <g id="Welcome" stroke="none" stroke-width="1" fill="none" fill-rule="evenodd" opacity="0.800000012">
        <g id="home" transform="translate(-465.000000, -406.000000)" fill="#000000">
            <g id="creep-on-me" transform="translate(403.000000, 363.000000)">
                <g id="behance-logo-button" transform="translate(62.000000, 43.000000)">
                    <g id="Capa_1">
                        <g id="Group">
                            <path d="M15.04368,14.89392 C15.04368,13.52592 14.11272,13.52592 14.11272,13.52592 L13.61952,13.52592 L10.28304,13.52592 L10.2816,13.52592 L10.2816,16.46208 L13.87512,16.46208 C14.49648,16.46208 15.04368,16.26408 15.04368,14.89392 L15.04368,14.89392 Z" id="Shape"></path>
                            <path d="M23.91912,16.46208 C21.888,16.46208 21.60432,18.48816 21.60432,18.48816 L25.92576,18.48816 C25.92576,18.4896 25.9524,16.46208 23.91912,16.46208 L23.91912,16.46208 Z" id="Shape"></path>
                            <path d="M14.11272,18.4896 L10.28376,18.4896 L10.28376,22.00752 L13.67568,22.00752 C13.73328,22.00752 13.81824,22.0104 13.91976,22.00752 C14.4648,21.99384 15.50088,21.83832 15.50088,20.29824 C15.50088,18.47232 14.11272,18.4896 14.11272,18.4896 L14.11272,18.4896 Z" id="Shape"></path>
                            <path d="M17.87472,0 C8.01864,0 0,8.01864 0,17.87472 C0,27.73008 8.01864,35.74944 17.87472,35.74944 C27.73008,35.74944 35.74944,27.73008 35.74944,17.87472 C35.74944,8.01864 27.73152,0 17.87472,0 L17.87472,0 Z M21.03768,11.9628 L26.46576,11.9628 L26.46576,13.58352 L21.03768,13.58352 L21.03768,11.9628 L21.03768,11.9628 Z M18.29304,20.46168 C18.29304,24.47712 14.11272,24.34608 14.11272,24.34608 L10.28376,24.34608 L10.17144,24.34608 L7.26696,24.34608 L7.26696,11.18808 L10.17144,11.18808 L10.28376,11.18808 L14.11272,11.18808 C16.19424,11.18808 17.83656,12.33792 17.83656,14.69232 C17.83656,17.046 15.8292,17.19576 15.8292,17.19576 C18.4752,17.19504 18.29304,20.46168 18.29304,20.46168 L18.29304,20.46168 Z M28.44864,20.24568 L21.62952,20.24568 C21.62952,22.6908 23.94576,22.53672 23.94576,22.53672 C26.13168,22.53672 26.05536,21.1212 26.05536,21.1212 L28.37304,21.1212 C28.37304,24.87816 23.87016,24.61968 23.87016,24.61968 C18.468,24.61968 18.81504,19.59048 18.81504,19.59048 C18.81504,19.59048 18.81,14.53464 23.87016,14.53464 C29.19528,14.53464 28.4472,20.24568 28.44864,20.24568 L28.44864,20.24568 Z" id="Shape"></path>
                        </g>
                    </g>
                </g>
            </g>
        </g>
    </g>
</svg>