<?xml version="1.0" encoding="UTF-8" standalone="no"?>
<svg width="198px" height="297px" viewBox="0 0 198 297" version="1.1" xmlns="http://www.w3.org/2000/svg" xmlns:xlink="http://www.w3.org/1999/xlink">
    <!-- Generator: Sketch 39.1 (31720) - http://www.bohemiancoding.com/sketch -->
    <title>Page 1</title>
    <desc>Created with Sketch.</desc>
    <defs>
        <linearGradient x1="57.9865332%" y1="100%" x2="87.0980837%" y2="50%" id="linearGradient-1">
            <stop stop-color="#B89456" offset="0%"></stop>
            <stop stop-color="#3F332A" offset="55.080118%"></stop>
            <stop stop-color="#654513" offset="100%"></stop>
        </linearGradient>
        <linearGradient x1="57.9865332%" y1="100%" x2="87.0980837%" y2="50%" id="linearGradient-2">
            <stop stop-color="#B89456" offset="0%"></stop>
            <stop stop-color="#3F332A" offset="100%"></stop>
            <stop stop-color="#654513" offset="100%"></stop>
        </linearGradient>
        <linearGradient x1="50%" y1="0%" x2="52.2047834%" y2="104.019855%" id="linearGradient-3">
            <stop stop-color="#3A2718" offset="0%"></stop>
            <stop stop-color="#7B6440" offset="100%"></stop>
        </linearGradient>
    </defs>
    <g id="colour" stroke="none" stroke-width="1" fill="none" fill-rule="evenodd">
        <g id="Desktop-Copy-3" transform="translate(-812.000000, -364.000000)">
            <g id="Page-1" transform="translate(799.000000, 364.000000)">
                <path d="M189,284 C189,291.180198 154.526035,297 112.000499,297 C69.4739654,297 35,291.180198 35,284 C35,276.819802 69.4739654,271 112.000499,271 C154.526035,271 189,276.819802 189,284" id="Fill-1" fill="#7771CA"></path>
                <path d="M21.0220423,151.491804 C21.0220423,151.491804 17.4259863,185.487137 58.6600928,181.817169 C58.6600928,181.817169 48.351064,175.363054 48.351064,164.586576 C48.351064,153.810098 76.9427231,139.894346 76.9427231,103.971756 C76.9427231,68.0481683 48.1561939,61.0942826 36.0973522,61.0942826 C24.0385106,61.0942826 21.0220423,151.491804 21.0220423,151.491804" id="Fill-6" fill="url(#linearGradient-1)" transform="translate(48.962454, 121.699569) scale(-1, 1) rotate(-22.500000) translate(-48.962454, -121.699569) "></path>
                <path d="M147.130174,155.536593 C147.130174,155.536593 143.534118,189.531927 184.768225,185.861959 C184.768225,185.861959 174.459196,179.407843 174.459196,168.631366 C174.459196,157.854888 203.050855,143.939136 203.050855,108.016546 C203.050855,72.0929579 174.264326,65.1390723 162.205484,65.1390723 C150.146642,65.1390723 147.130174,155.536593 147.130174,155.536593" id="Fill-6" fill="url(#linearGradient-1)" transform="translate(174.962454, 125.699569) rotate(-22.500000) translate(-174.962454, -125.699569) "></path>
                <path d="M140.079319,151.397521 C140.079319,151.397521 136.483263,185.392855 177.71737,181.722887 C177.71737,181.722887 167.408341,175.268771 167.408341,164.492293 C167.408341,153.715815 196,139.800064 196,103.877473 C196,67.9538857 167.213471,61 155.154629,61 C143.095787,61 140.079319,151.397521 140.079319,151.397521" id="Fill-6" fill="url(#linearGradient-2)"></path>
                <path d="M29.0793192,151.397521 C29.0793192,151.397521 25.4832631,185.392855 66.7173697,181.722887 C66.7173697,181.722887 56.4083408,175.268771 56.4083408,164.492293 C56.4083408,153.715815 85,139.800064 85,103.877473 C85,67.9538857 56.2134707,61 44.1546291,61 C32.0957874,61 29.0793192,151.397521 29.0793192,151.397521" id="Fill-6" fill="url(#linearGradient-2)" transform="translate(57.000000, 121.500000) scale(-1, 1) translate(-57.000000, -121.500000) "></path>
                <polygon id="Fill-24" fill="#FFDBB3" points="102 230 87 232.734019 90.1147914 261 98.3727468 261"></polygon>
                <polygon id="Fill-26" fill="#FFDBB3" points="91 261 93.1094433 280.467752 96.6976717 281 99 261"></polygon>
                <path d="M96,281.254098 L95.6888008,285 L83,285 L88.7224975,282.375228 C89.8969277,282.84153 92.234886,283.317851 94.0773043,281 L96,281.254098 Z" id="Fill-28" fill="#F1F2F3"></path>
                <path d="M94,281.233917 C92.279341,283.55847 90.096816,283.081498 89,282.613664 L92.279341,281 L94,281.233917 Z" id="Fill-30" fill="#F1F2F3"></path>
                <polygon id="Fill-32" fill="#FFDBB3" points="117 230 132 232.734019 128.885209 261 120.627253 261"></polygon>
                <polygon id="Fill-34" fill="#FFDBB3" points="129 261 126.890557 280.467752 123.302328 281 121 261"></polygon>
                <path d="M123,281.254098 L123.311199,285 L136,285 L130.276511,282.375228 C129.103072,282.84153 126.765114,283.317851 124.922696,281 L123,281.254098 Z" id="Fill-36" fill="#F1F2F3"></path>
                <path d="M125,281.233917 C126.720659,283.55847 128.903184,283.081498 130,282.613664 L126.720659,281 L125,281.233917 Z" id="Fill-38" fill="#F1F2F3"></path>
                <path d="M64.2473048,200.979733 C64.2473048,200.979733 62.3251527,208.193413 69.1983951,208.097387 C69.1983951,208.097387 67.1656597,208.958678 65.9069693,209.054704 C64.6482789,209.149749 64.4550154,211.159428 66.2944874,211.159428 C66.2944874,211.159428 65.035797,212.499867 65.809842,213.456204 C66.5848782,214.413521 71.5215214,214.700618 73.3600022,209.149749 C75.1994742,203.599861 72.4888299,200.979734 72.4888299,200.979734 L67.1731133,198 L64.2473048,200.979733 Z M67,171 L50.9371498,181.516303 L62.3211811,193.53406 L63.8150988,194.957459 L64.8631304,195.957252 L65.9668977,197.014261 L67,198 L64.0680533,201 L62.4477349,199.422015 L61.6793774,198.661128 L60.4641386,197.477639 L59.0956264,196.139564 L48.0226844,187 L40,180.163171 L48.6320775,172.175874 L62.0623822,160 L67,171 Z" id="Combined-Shape" fill="#FFDBB3"></path>
                <g id="Group-2" transform="translate(62.000000, 144.000000)" fill="#194D81">
                    <polyline id="Fill-16" points="97 24 70 10.2566528 87.6091082 4 101 14"></polyline>
                    <polyline id="Fill-44" points="0 16 17 0 17 18.7932849 5.00000016 27"></polyline>
                    <g id="Group-3" transform="translate(6.000000, 1.000000)">
                        <polygon id="Fill-52" points="89 89 0 89 3 61 4 50 8 0 81 0 85 50 86 61"></polygon>
                    </g>
                </g>
                <path d="M187.121285,147 C186.732821,147 185.132294,140.512786 186.624254,139.286708 C187.50975,138.558567 188.468352,143.047085 188.468352,143.047085 C188.468352,143.047085 190.11064,135.004058 191.084686,135.000001 C191.916641,134.996959 191.084686,141.735821 191.084686,141.735821 C191.084686,141.735821 193.475527,134.805289 194.298216,135.040566 C195.57086,135.404637 192.70741,142.521768 192.70741,142.521768 C192.70741,142.521768 196.133047,137.559653 197.121509,137.992685 C197.860796,138.316191 194.626673,143.492286 194.626673,143.492286 C194.626673,143.492286 197.459233,141.252083 197.952434,141.737849 C198.444606,142.222601 194.955131,145.35929 194.955131,145.35929 C194.955131,145.35929 193.537306,148.280985 191.084686,149 L187.121285,147 Z M163,158 L176.657945,168.263803 L184.394387,152.887913 L185.22331,151.008432 L185.80755,149.69051 L186.424748,148.301026 L187,147 L191,149 L190.068211,151.049439 L189.614801,152.024463 L188.91571,153.562039 L188.123739,155.294421 L183,169 L179.080795,179 L168.683312,173.540462 L159,168 L163,158 Z" id="Combined-Shape" fill="#FFDBB3"></path>
                <path d="M197,87 C197,128.369115 159.168288,157 112.5,157 C65.8317125,157 28,128.369115 28,87 C28,44.9734608 65.8317125,6 112.5,6 C159.168288,6 197,44.9734608 197,87" id="Fill-74" fill="#FFDBB3"></path>
                <path d="M79,101.5 C79,104.537204 76.5372035,107 73.5,107 C70.4627965,107 68,104.537204 68,101.5 C68,98.4627965 70.4627965,96 73.5,96 C76.5372035,96 79,98.4627965 79,101.5" id="Fill-76" fill="#131C1E"></path>
                <path d="M157,101.5 C157,104.537204 154.537204,107 151.5,107 C148.462796,107 146,104.537204 146,101.5 C146,98.4627965 148.462796,96 151.5,96 C154.537204,96 157,98.4627965 157,101.5" id="Fill-78" fill="#131C1E"></path>
                <g id="Group" transform="translate(83.000000, 117.000000)">
                    <path d="M58,0 C55.8193462,5.49859443 52.1879185,10.2489139 47.5829847,13.7408638 C42.3859595,17.6713519 35.9478387,20 28.9885176,20 C22.0401797,20 15.6020589,17.6713519 10.4160168,13.7408638 C5.81108299,10.2489139 2.18065382,5.49859443 0,0 L58,0 Z" id="Fill-80" fill="#131C1E"></path>
                    <path d="M48,13.7605299 C42.8263217,17.6796875 36.4171234,20 29.4880722,20 C22.5709489,20 16.1617505,17.6796875 11,13.7605299 C15.458011,8.39741848 22.0858855,5 29.5,5 C36.9141145,5 43.541989,8.39741848 48,13.7605299" id="Fill-82" fill="#E64F62"></path>
                </g>
                <path d="M47,101 C47,110.389054 39.3890538,118 30,118 C20.6109462,118 13,110.389054 13,101 C13,91.6109462 20.6109462,84 30,84 C39.3890538,84 47,91.6109462 47,101" id="Fill-84" fill="#EFC397"></path>
                <path d="M177,101 C177,110.389054 184.610946,118 194,118 C203.389054,118 211,110.389054 211,101 C211,91.6109462 203.389054,84 194,84 C184.610946,84 177,91.6109462 177,101" id="Fill-86" fill="#EFC397"></path>
                <path d="M112,0 C58.9448068,0 41.6666146,37.1270498 40,41 C33.4856827,49.0027928 26,62.3913376 26,82 C26,116.162202 42.8380344,128 43,128 C53.2327597,104.200584 55.546589,82.3992636 55,66 C81.0457274,63.785312 91.1163365,57.039115 91,57 L81,66 C116.362384,66.650149 146.492182,55.7050536 146,56 L138,66 C145.139125,65.7226299 151.253082,64.8662658 156,64 C162.17129,62.3182635 166.767675,60.5476227 170,59 C168.942228,76.057479 170.244695,100.716646 182,128 C182.161966,128 199,116.162202 199,82 C199,62.5111635 191.603349,49.1615621 185,41 C183.809556,38.1216045 166.361303,0 112,0 Z" id="Fill-88" fill="url(#linearGradient-3)"></path>
            </g>
        </g>
    </g>
</svg>