<?xml version="1.0" encoding="UTF-8" standalone="no"?>
<svg width="36px" height="36px" viewBox="0 0 36 36" version="1.1" xmlns="http://www.w3.org/2000/svg" xmlns:xlink="http://www.w3.org/1999/xlink">
    <!-- Generator: Sketch 39.1 (31720) - http://www.bohemiancoding.com/sketch -->
    <title>Twitter_Logo_White_On_Blue</title>
    <desc>Created with Sketch.</desc>
    <defs>
        <circle id="path-1" cx="18" cy="18" r="18"></circle>
    </defs>
    <g id="Welcome" stroke="none" stroke-width="1" fill="none" fill-rule="evenodd" opacity="0.800000012">
        <g id="home" transform="translate(-583.000000, -406.000000)">
            <g id="creep-on-me" transform="translate(403.000000, 363.000000)">
                <g id="Twitter_Logo_White_On_Blue" transform="translate(180.000000, 43.000000)">
                    <mask id="mask-2" fill="white">
                        <use xlink:href="#path-1"></use>
                    </mask>
                    <use id="Mask" fill="#D8D8D8" opacity="0.200000003" xlink:href="#path-1"></use>
                    <g mask="url(#mask-2)" id="Twitter_Logo_White-on-Blue">
                        <g transform="translate(-0.555556, 0.000000)">
                            <g>
                                <g id="Dark_Blue" fill="#262626">
                                    <rect id="Rectangle-path" x="0" y="0" width="36.5555556" height="36"></rect>
                                </g>
                                <g id="Logo_FIXED">
                                    <path d="M14.0391611,27.1431 C22.6607889,27.1431 27.3764556,20.1087 27.3764556,14.0085 C27.3764556,13.8087 27.3764556,13.6098 27.3627472,13.4118 C28.2801376,12.7583198 29.0720443,11.9491915 29.7013889,11.0223 C28.8458784,11.3956216 27.9383412,11.6404458 27.0090722,11.7486 C27.9876133,11.1716839 28.7199851,10.2642948 29.0698917,9.1953 C28.1497495,9.73300978 27.1430905,10.1119608 26.0933556,10.3158 C24.6403479,8.79425485 22.3315324,8.42185133 20.4615603,9.40741194 C18.5915882,10.3929725 17.6255124,12.4913932 18.1050528,14.526 C14.3360797,14.3399246 10.8245348,12.5867909 8.44433333,9.7029 C7.2001858,11.8121803 7.83567226,14.5105735 9.89558889,15.8652 C9.14961904,15.8434268 8.41991365,15.6452519 7.76805556,15.2874 L7.76805556,15.3459 C7.76866615,17.5433337 9.34154511,19.4359816 11.5287083,19.8711 C10.838603,20.056446 10.1145389,20.0835399 9.41214167,19.9503 C10.0262274,21.8307805 11.7860362,23.1190055 13.7914972,23.1561 C12.1316329,24.4407887 10.0811627,25.138195 7.970025,25.1361 C7.59707021,25.1353949 7.22447816,25.1131567 6.85416667,25.0695 C8.9978173,26.4242489 11.4920736,27.1428452 14.0391611,27.1395" id="Shape" fill="#FFFFFF"></path>
                                    <rect id="Rectangle-path" x="0" y="0" width="36.5555556" height="36"></rect>
                                </g>
                            </g>
                        </g>
                    </g>
                </g>
            </g>
        </g>
    </g>
</svg>